<?xml version="1.0" encoding="utf-8"?>
<!-- Generator: Adobe Illustrator 23.0.3, SVG Export Plug-In . SVG Version: 6.00 Build 0)  -->
<svg version="1.1"
	 id="Layer_1" xmlns:cc="http://creativecommons.org/ns#" xmlns:dc="http://purl.org/dc/elements/1.1/" xmlns:inkscape="http://www.inkscape.org/namespaces/inkscape" xmlns:rdf="http://www.w3.org/1999/02/22-rdf-syntax-ns#" xmlns:sodipodi="http://sodipodi.sourceforge.net/DTD/sodipodi-0.dtd" xmlns:svg="http://www.w3.org/2000/svg"
	 xmlns="http://www.w3.org/2000/svg" xmlns:xlink="http://www.w3.org/1999/xlink" x="0px" y="0px" viewBox="0 0 376.42 88.39"
	 style="enable-background:new 0 0 376.42 88.39;" xml:space="preserve">
<style type="text/css">
	.st0{fill:#FFFFFF;}
</style>
<sodipodi:namedview  bordercolor="#666666" borderopacity="1" gridtolerance="10" guidetolerance="10" id="namedview3883" inkscape:current-layer="Layer_1" inkscape:cx="145.33546" inkscape:cy="86.11057" inkscape:pagecheckerboard="true" inkscape:pageopacity="0" inkscape:pageshadow="2" inkscape:window-height="1052" inkscape:window-maximized="1" inkscape:window-width="1920" inkscape:window-x="0" inkscape:window-y="0" inkscape:zoom="1.4631769" objecttolerance="10" pagecolor="#ffffff" showgrid="false">
	</sodipodi:namedview>
<g>
	<path class="st0" d="M304.4,5.71c0,0,0.12,0.41,0.35,1.23s0.27,1.66,0.12,2.51c-0.23,1.56-0.93,3.04-2.1,4.44
		c-0.55,0.55-1.17,1.05-1.87,1.52c-0.55,0.47-1.21,0.89-1.98,1.28c-0.86,0.39-1.6,0.66-2.22,0.82c-0.39,0.08-1.09,0.23-2.1,0.47
		c-2.73,0.63-5.69,1.05-8.88,1.29c-2.57,0.16-5.49,0.23-8.76,0.23c-2.8,0-5.77-0.35-8.88-1.05c-1.71-0.31-3.62-0.74-5.73-1.28
		c-6.16,4.91-11.69,10.75-16.59,17.53c-3.43,4.67-6.42,9.62-9,14.84c-0.31,0.78-0.9,2.07-1.75,3.86c-0.08,0.16-0.33,0.72-0.76,1.69
		c-0.43,0.98-0.76,1.73-1,2.28c-1.09,2.96-1.95,5.69-2.57,8.18c-0.7,3.12-1.02,5.89-0.93,8.3c0.08,1.41,0.31,2.73,0.7,3.98
		c0.39,1.25,0.98,2.38,1.75,3.39c0.47,0.47,0.93,0.9,1.41,1.29c0.62,0.47,1.17,0.82,1.64,1.05c0.08,0.08,0.16,0.14,0.23,0.18
		c0.08,0.04,0.19,0.08,0.35,0.12c0.16,0.04,0.23,0.1,0.23,0.18c0.47,0.16,0.78,0.27,0.93,0.35c0.7,0.16,1.36,0.27,1.98,0.35
		c1.25,0.16,2.61,0.19,4.09,0.12c1.32-0.16,2.69-0.43,4.09-0.82c2.57-0.78,5.18-1.87,7.83-3.27c2.34-1.32,4.71-2.93,7.13-4.79
		c4.28-3.51,8.22-7.71,11.81-12.62c1.79-2.57,3.31-5.03,4.56-7.36c0.62-1.32,1.17-2.65,1.64-3.98c0.55-1.48,0.89-2.8,1.05-3.98
		c0.16-1.56-0.04-2.8-0.59-3.74c-0.63-0.93-1.56-1.41-2.8-1.41h-0.23h-0.23h-0.47c-0.16,0-0.35,0.02-0.59,0.06
		c-0.23,0.04-0.39,0.06-0.47,0.06c-0.08,0.08-0.18,0.12-0.29,0.12s-0.23,0.02-0.35,0.06c-0.12,0.04-0.22,0.06-0.29,0.06
		s-0.18,0.02-0.29,0.06c-0.12,0.04-0.25,0.08-0.41,0.12c-0.16,0.04-0.27,0.06-0.35,0.06c-1.32,0.46-2.53,1.05-3.62,1.75
		c-0.08,0-0.39,0.2-0.93,0.59c-0.08,0-0.22,0.06-0.41,0.18c-0.2,0.12-0.33,0.22-0.41,0.29l-0.82,0.7c-0.47,0.31-0.74,0.5-0.82,0.59
		l-0.82,0.7c-0.31,0.31-0.59,0.55-0.82,0.7c-0.08,0.08-0.29,0.31-0.64,0.7c-0.35,0.39-0.64,0.66-0.88,0.82
		c-1.56,1.64-3.35,3.86-5.37,6.66l-1.17,1.75l-1.17,1.87c-0.93,1.41-1.64,2.61-2.1,3.62c-0.63,1.32-1.13,2.61-1.52,3.85
		c-0.23,0.7-0.43,1.36-0.59,1.98c-0.16,0.78-0.23,1.41-0.23,1.87c0.08,0.86-0.27,1.29-1.05,1.29c-0.78,0.08-1.21-0.27-1.28-1.05
		c-0.08-0.7-0.04-1.56,0.12-2.57c0.08-0.7,0.23-1.44,0.47-2.22c0.39-1.41,0.89-2.84,1.52-4.32c0.39-0.78,0.74-1.48,1.05-2.1
		c0.08,0,0.47-0.62,1.17-1.87c0.62-1.01,1.01-1.64,1.17-1.87l1.29-1.87c0.31-0.47,0.74-1.09,1.28-1.87c0.08,0,0.29-0.23,0.64-0.7
		s0.6-0.82,0.76-1.05l1.52-1.75c0.16-0.16,0.31-0.31,0.47-0.47c0.16-0.16,0.33-0.35,0.53-0.59c0.19-0.23,0.37-0.43,0.53-0.59
		c2.41-2.41,4.83-4.28,7.24-5.61c2.96-1.56,5.96-2.34,9-2.34c0.93,0.08,1.79,0.35,2.57,0.82c0.78,0.47,1.41,1.13,1.87,1.98
		c0.39,0.7,0.62,1.52,0.7,2.46c0.08,0.78,0.08,1.6,0,2.46c-0.39,2.41-1.45,5.22-3.16,8.42c-1.17,2.34-2.73,4.87-4.67,7.6
		c-3.59,5.14-7.56,9.51-11.92,13.09c-2.41,2.03-4.83,3.74-7.24,5.14c-1.32,0.78-2.69,1.48-4.09,2.1c-1.41,0.62-2.8,1.13-4.21,1.52
		c-1.48,0.47-2.96,0.82-4.44,1.05c-1.64,0.23-3.2,0.27-4.67,0.12c-0.7-0.08-1.48-0.23-2.34-0.47c-0.31-0.08-0.7-0.23-1.17-0.47
		l-1.05-0.47c-0.63-0.31-1.32-0.74-2.1-1.28c-0.63-0.47-1.21-1.01-1.75-1.64c-1.09-1.32-1.91-2.76-2.46-4.32
		c-0.47-1.41-0.74-2.96-0.82-4.67c-0.16-2.73,0.16-5.76,0.93-9.12c0.62-2.57,1.52-5.42,2.69-8.53c0.23-0.39,0.43-0.82,0.59-1.28
		c0.16-0.47,0.35-0.98,0.59-1.52c0.23-0.55,0.43-0.98,0.59-1.28c0.86-1.87,1.48-3.19,1.87-3.98c2.65-5.37,5.73-10.44,9.23-15.2
		c4.75-6.39,10.05-12,15.89-16.83c-1.41-0.39-3.18-0.91-5.32-1.58s-4.15-1.29-6.02-1.87c-1.87-0.59-3.62-1.07-5.26-1.46
		c-5.85-1.64-11.53-2.89-17.06-3.74c-5.77-0.86-11.53-1.28-17.3-1.28c-5.69,0.08-11.49,0.55-17.41,1.41
		c-2.57,0.39-5.42,0.89-8.53,1.52l-4.21,1.05l-4.32,0.93c-12.39,3.04-23.8,5.61-34.25,7.71c-12.24,2.5-23.76,4.48-34.59,5.96
		c-12.93,1.71-24.66,2.69-35.18,2.92c-13.4,0.31-25.09-0.59-35.06-2.69c-6.39-1.41-12.04-3.27-16.95-5.61
		c-5.77-2.65-10.63-6-14.61-10.05c-0.39-0.39-0.39-0.76,0-1.11C3.61,7.99,4,7.97,4.39,8.28c3.98,3.82,8.72,6.98,14.26,9.47
		c4.99,2.18,10.52,3.89,16.59,5.14c5.14,1.09,10.87,1.83,17.18,2.22c5.46,0.39,11.26,0.5,17.41,0.35c5.3-0.16,11.1-0.5,17.41-1.05
		c5.53-0.47,11.34-1.13,17.41-1.98c10.44-1.41,21.93-3.31,34.48-5.73c10.44-2.1,21.85-4.6,34.25-7.48l4.32-0.93l4.32-1.05
		c3.04-0.62,5.92-1.13,8.65-1.52c6-0.86,11.88-1.28,17.65-1.28c5.76,0,11.61,0.47,17.53,1.41c5.61,0.86,11.38,2.1,17.3,3.74
		c2.18,0.63,5.22,1.54,9.12,2.75c3.89,1.21,6.47,2.01,7.71,2.39c0.08,0,0.35,0.08,0.82,0.23c2.8-2.18,5.69-4.17,8.65-5.96
		c5.61-3.35,11.06-5.69,16.36-7.01c1.79-0.39,3.27-0.66,4.44-0.82c1.56-0.16,3.08-0.19,4.56-0.12c0.7,0.08,1.48,0.22,2.34,0.41
		c0.86,0.2,1.6,0.41,2.22,0.64c0.47,0.16,0.82,0.27,1.05,0.35c0.23,0.16,0.62,0.35,1.17,0.59c0.78,0.55,1.4,1.09,1.87,1.64
		C304.08,5.36,304.4,5.71,304.4,5.71z M302.99,9.22c0.16-1.25-0.2-2.34-1.05-3.27c-0.31-0.39-0.78-0.78-1.41-1.17
		c-0.47-0.23-0.78-0.39-0.93-0.47c-0.23-0.08-0.55-0.19-0.93-0.35c-1.25-0.39-2.57-0.62-3.98-0.7c-1.41-0.16-2.8-0.12-4.21,0.12
		c-1.09,0.16-2.46,0.43-4.09,0.82c-5.07,1.32-10.29,3.66-15.66,7.01c-2.34,1.41-4.6,2.96-6.78,4.67c1.56,0.39,3.04,0.7,4.44,0.93
		c3.04,0.7,5.88,1.02,8.53,0.93c3.19,0.08,6.08,0,8.65-0.23c3.27-0.23,6.12-0.62,8.53-1.17c1.01-0.23,1.71-0.43,2.1-0.59
		c0.55-0.16,1.17-0.39,1.87-0.7c0.62-0.31,1.21-0.66,1.75-1.05c0.55-0.47,1.05-0.93,1.52-1.41
		C302.29,11.51,302.83,10.38,302.99,9.22z"/>
	<path class="st0" d="M305.91,52.34c0.23,0.31,0.23,0.59,0,0.82c-1.25,1.17-2.5,2.1-3.74,2.8c-1.64,0.93-3.12,1.56-4.44,1.87
		c-0.55,0.08-1.02,0.08-1.41,0c-0.23,0-0.47-0.04-0.7-0.12c-0.08,0-0.2-0.04-0.35-0.12c-0.23-0.08-0.39-0.16-0.47-0.23
		c-0.23-0.08-0.45-0.23-0.64-0.47c-0.2-0.23-0.33-0.5-0.41-0.82c-0.16-0.39-0.23-0.86-0.23-1.41c-0.93,0.86-1.71,1.56-2.34,2.1
		c-0.7,0.47-1.32,0.86-1.87,1.17c-0.39,0.16-0.78,0.27-1.17,0.35c-0.47,0.16-0.93,0.16-1.4,0c-0.31,0-0.59-0.08-0.82-0.23
		c-0.23-0.23-0.43-0.47-0.59-0.7c-0.31-0.47-0.47-0.98-0.47-1.52c0-0.47,0.08-0.93,0.23-1.41c0.16-0.39,0.31-0.74,0.47-1.05
		c0.62-1.17,1.64-2.3,3.04-3.39c1.09-0.86,2.34-1.56,3.74-2.1c1.41-0.62,2.76-1.01,4.09-1.17c0.93-0.08,1.71-0.04,2.34,0.12
		c0.55,0.16,0.98,0.39,1.28,0.7c0.16,0.23,0.27,0.47,0.35,0.7c0.08,0.23,0.08,0.51,0,0.82c0,0.39-0.2,0.55-0.59,0.46
		c-0.31,0-0.5-0.16-0.59-0.46v-0.12c0-0.16-0.08-0.27-0.23-0.35c-0.16-0.08-0.35-0.12-0.59-0.12c-0.47-0.08-1.02-0.04-1.64,0.12
		c-0.55,0.08-1.17,0.27-1.87,0.59c-0.55,0.16-1.13,0.39-1.75,0.7c-1.17,0.55-2.22,1.21-3.16,1.98c-0.93,0.78-1.71,1.68-2.34,2.69
		c-0.08,0.23-0.2,0.47-0.35,0.7c-0.08,0.16-0.12,0.27-0.12,0.35c0,0.08,0,0.16,0,0.23c-0.08,0.16-0.1,0.29-0.06,0.41
		c0.04,0.12,0.1,0.18,0.18,0.18c0.23,0.16,0.7,0.16,1.4,0c0.55-0.23,1.09-0.5,1.64-0.82c1.09-0.62,2.1-1.44,3.04-2.46
		c0.39-0.55,0.78-1.05,1.17-1.52c0.31-0.55,0.62-1.13,0.93-1.75l0.12-0.12c0.62-0.62,1.21-0.66,1.75-0.12
		c0.55,0.47,0.62,1.02,0.23,1.64c-0.55,0.7-0.93,1.28-1.17,1.75c-0.39,0.7-0.66,1.28-0.82,1.75c0,0.23,0,0.43,0,0.59
		c0.08,0.16,0.16,0.27,0.23,0.35l0.12,0.12h0.12c0,0.08,0.04,0.12,0.12,0.12c0.08,0,0.19,0,0.35,0c0.23,0.08,0.55,0.08,0.93,0
		c1.17-0.08,2.5-0.5,3.98-1.28c1.17-0.62,2.37-1.44,3.62-2.46C305.41,51.99,305.68,52.03,305.91,52.34z"/>
	<path class="st0" d="M323.09,52.11c0,0,0.18,0.14,0.53,0.41c0.35,0.27,0.41,0.57,0.18,0.88c-1.71,2.1-3.62,4.25-5.73,6.42
		c-2.26,2.26-4.37,4.21-6.31,5.85c-1.17,0.93-2.34,1.79-3.51,2.57c-0.86,0.47-1.6,0.78-2.22,0.93c-0.23,0.08-0.47,0.12-0.7,0.12
		c-0.39,0-0.74-0.12-1.05-0.35c-0.16-0.08-0.27-0.19-0.35-0.35c-0.08-0.08-0.12-0.16-0.12-0.23l-0.12-0.23
		c-0.16-0.23-0.23-0.46-0.23-0.7c-0.16-0.78-0.08-1.68,0.23-2.69c0.23-0.55,0.59-1.25,1.05-2.1c0.23-0.39,0.59-1,1.05-1.81
		c0.46-0.82,0.82-1.42,1.05-1.81c0.39-0.7,0.66-1.28,0.82-1.75c0.08-0.23,0.16-0.47,0.23-0.7c0-0.16-0.04-0.35-0.12-0.59
		c-0.08-0.39-0.31-0.86-0.7-1.41c-0.08-0.16-0.2-0.33-0.35-0.53c-0.16-0.19-0.31-0.41-0.46-0.64c-0.16-0.23-0.31-0.43-0.47-0.59
		c-0.31-0.47-0.5-0.93-0.59-1.41c-0.08-0.31-0.12-0.62-0.12-0.93s0.04-0.62,0.12-0.93c0.23-0.55,0.59-1.25,1.05-2.1
		c0.7-1.17,1.56-2.37,2.57-3.62c0.55-0.7,1.05-1.29,1.52-1.75c0.39-0.31,0.7-0.59,0.93-0.82l0.35-0.12l0.23-0.12l0.23-0.12
		l0.23-0.12h0.23c0.08,0,0.16,0,0.23,0c0.23,0,0.47,0.04,0.7,0.12c0.08,0.08,0.16,0.16,0.23,0.23c0.08,0.08,0.16,0.16,0.23,0.23
		c0.16,0.16,0.23,0.39,0.23,0.7c0.08,0.16,0.12,0.31,0.12,0.47c0,0.23-0.04,0.5-0.12,0.82c-0.08,0.39-0.23,0.78-0.46,1.17
		c-0.23,0.39-0.63,1.02-1.17,1.87l-0.7,0.93c-0.23,0.31-0.47,0.63-0.7,0.93c-0.47,0.63-0.93,1.17-1.4,1.64l-1.52,1.64
		c0.08,0.16,0.23,0.39,0.46,0.7c0.23,0.31,0.43,0.59,0.59,0.82c0.62,0.86,1.01,1.64,1.17,2.34c0.16,0.47,0.19,0.98,0.12,1.52
		c-0.08,0.39-0.2,0.82-0.35,1.28c-0.23,0.63-0.59,1.32-1.05,2.1c-0.23,0.47-0.63,1.11-1.17,1.93c-0.55,0.82-0.9,1.38-1.05,1.69
		c-0.39,0.63-0.7,1.21-0.93,1.75c-0.31,0.63-0.47,1.09-0.47,1.41c0,0.16,0,0.27,0,0.35h-0.12c0.08,0.08,0.19,0.08,0.35,0
		c0.47,0,1.05-0.16,1.75-0.47c0.93-0.47,2.1-1.21,3.51-2.22c1.09-0.86,2.18-1.75,3.27-2.69c1.01-0.93,2.03-1.91,3.04-2.92
		c2.03-2.18,3.82-4.32,5.37-6.42C322.98,52.3,323.09,52.11,323.09,52.11z M308.6,48.84c-0.39,0.63-0.66,1.17-0.82,1.64v0.12
		c0.47-0.47,0.89-0.93,1.28-1.41c0.55-0.62,0.98-1.17,1.28-1.64c0.16-0.31,0.31-0.62,0.47-0.93c0.16-0.23,0.31-0.5,0.47-0.82
		c0.23-0.47,0.39-0.98,0.47-1.52c-0.31,0.31-0.63,0.7-0.93,1.17C310.04,46.46,309.3,47.59,308.6,48.84z M311.87,42.64
		c0.08,0,0.12,0.04,0.12,0.12v-0.12H311.87z"/>
	<path class="st0" d="M340.45,52.46c0.27,0.31,0.25,0.59-0.06,0.82h-0.12c-1.25,0.93-2.65,1.75-4.21,2.46
		c-1.79,0.78-3.35,1.25-4.67,1.41c-1.02,0.16-1.87,0.08-2.57-0.23c-0.47,0.78-1.05,1.48-1.75,2.1c-0.47,0.47-0.98,0.86-1.52,1.17
		c-0.63,0.39-1.25,0.63-1.87,0.7c-0.47,0-0.89-0.04-1.28-0.12c-0.47-0.16-0.89-0.39-1.28-0.7c-0.31-0.31-0.55-0.7-0.7-1.17
		c-0.08-0.39-0.12-0.82-0.12-1.28c0-0.55,0.16-1.21,0.46-1.98c0.16-0.55,0.43-1.13,0.82-1.75c0.55-0.93,1.28-1.91,2.22-2.92
		c0.46-0.47,0.93-0.86,1.4-1.17c0.31-0.23,0.59-0.43,0.82-0.59c0.47-0.23,0.89-0.35,1.29-0.35c0.08-0.08,0.19-0.12,0.35-0.12
		c0.23-0.08,0.43-0.04,0.59,0.12l0.23,0.12l0.35,0.23c0.16,0.08,0.31,0.16,0.47,0.23c0.39,0.31,0.66,0.63,0.82,0.93
		c0.47,0.63,0.62,1.36,0.47,2.22c-0.08,0.86-0.47,2.03-1.17,3.51c0.55,0.16,1.17,0.2,1.87,0.12c1.32-0.16,2.76-0.62,4.32-1.41
		c1.56-0.7,2.88-1.52,3.98-2.46C339.88,52.11,340.18,52.14,340.45,52.46z M326.01,57.6c0.55-0.47,1.05-0.98,1.52-1.52
		c-0.23-0.39-0.43-0.78-0.59-1.17c-0.16-0.55-0.23-1.44-0.23-2.69c0-0.08,0.04-0.19,0.12-0.35v-0.12h-0.12
		c-0.31,0.31-0.66,0.66-1.05,1.05c-0.7,0.7-1.36,1.48-1.98,2.34c-0.55,1.02-0.86,1.87-0.93,2.57c-0.08,0.31-0.04,0.55,0.12,0.7
		c0,0.08,0.04,0.16,0.12,0.23c0.16,0.08,0.31,0.12,0.47,0.12c0.39,0,0.82-0.12,1.28-0.35C325.12,58.19,325.55,57.91,326.01,57.6z
		 M328.58,51.52h-0.12c-0.16,0.31-0.27,0.63-0.35,0.93c-0.16,0.7-0.16,1.41,0,2.1c0,0.16,0.04,0.27,0.12,0.35
		c0.47-0.93,0.7-1.71,0.7-2.34C328.94,52.11,328.82,51.76,328.58,51.52z"/>
	<path class="st0" d="M360.02,20.78c0,0.08,0,0.2,0,0.35c-0.08,0.16-0.12,0.35-0.12,0.59c-0.08,0.31-0.2,0.63-0.35,0.93
		c-0.16,0.55-0.35,1.13-0.59,1.75c-0.78,1.71-1.87,3.78-3.27,6.19c-0.93,1.71-2.18,3.7-3.74,5.96c-1.48,2.34-2.77,4.28-3.86,5.85
		c-1.4,2.1-2.73,4.02-3.98,5.73c-1.56,2.1-3,3.94-4.32,5.49c-0.08,0.16-0.16,0.23-0.23,0.23c-0.86,2.03-1.48,3.82-1.87,5.37
		c-0.31,1.25-0.5,2.34-0.59,3.27c-0.08,0.55-0.12,1.05-0.12,1.52c0,0.31,0.04,0.55,0.12,0.7v0.12c0.08,0,0.23-0.04,0.47-0.12
		c0.39-0.08,0.86-0.27,1.41-0.59c1.01-0.47,1.98-1.09,2.92-1.87c1.48-1.17,3.16-2.73,5.03-4.68c1.56-1.56,3.08-3.27,4.56-5.14
		c0.23-0.39,0.5-0.45,0.82-0.18s0.35,0.57,0.12,0.88c-5.07,5.46-8.3,8.85-9.7,10.17c-0.08,0-0.27,0.16-0.59,0.47
		c-0.31,0.31-0.55,0.55-0.7,0.7c-0.55,0.47-1.02,0.86-1.41,1.17c-0.63,0.47-1.17,0.82-1.64,1.05c-0.47,0.16-0.86,0.27-1.17,0.35
		c-0.23,0-0.47-0.04-0.7-0.12c-0.31,0-0.62-0.12-0.93-0.35c-0.39-0.31-0.66-0.74-0.82-1.28c-0.08-0.31-0.16-0.7-0.23-1.17
		c0-0.55,0-1.17,0-1.87c0.16-1.09,0.39-2.3,0.7-3.62c0.47-1.94,1.21-4.21,2.22-6.78c0.7-1.79,1.64-3.94,2.8-6.42
		c1.09-2.1,2.18-4.17,3.27-6.19c1.17-2.26,2.34-4.28,3.51-6.08c0.31-0.55,0.62-1.05,0.93-1.52l0.93-1.41
		c0.7-1.01,1.36-1.98,1.98-2.92c1.71-2.41,3.16-4.28,4.32-5.61c0.47-0.55,0.89-1.01,1.28-1.41c0.31-0.23,0.59-0.47,0.82-0.7
		c0.23-0.16,0.47-0.27,0.7-0.35c0.31-0.08,0.62-0.08,0.93,0c0.23,0.08,0.43,0.23,0.59,0.47c0.16,0.08,0.27,0.22,0.35,0.41
		C359.98,20.34,360.02,20.55,360.02,20.78z M353.72,29.55c1.17-2.1,2.1-3.94,2.8-5.49c-0.93,1.17-2.1,2.73-3.51,4.67
		c-0.63,0.93-1.25,1.91-1.87,2.92l-0.93,1.41c-0.31,0.39-0.63,0.89-0.93,1.52c-1.09,1.71-2.22,3.7-3.39,5.96
		c-1.17,2.1-2.22,4.13-3.16,6.08c-0.39,0.86-0.82,1.75-1.28,2.69c0.7-1.01,1.17-1.71,1.41-2.1c1.09-1.56,2.34-3.46,3.74-5.73
		c1.01-1.56,2.26-3.55,3.74-5.96C351.88,32.78,353.01,30.8,353.72,29.55z"/>
	<path class="st0" d="M370.66,52.34c0.23,0.31,0.23,0.59,0,0.82c-1.25,1.17-2.5,2.1-3.74,2.8c-1.64,0.93-3.12,1.56-4.44,1.87
		c-0.55,0.08-1.02,0.08-1.4,0c-0.23,0-0.47-0.04-0.7-0.12c-0.08,0-0.2-0.04-0.35-0.12c-0.23-0.08-0.39-0.16-0.47-0.23
		c-0.23-0.08-0.45-0.23-0.64-0.47c-0.2-0.23-0.33-0.5-0.41-0.82c-0.16-0.39-0.23-0.86-0.23-1.41c-0.93,0.86-1.71,1.56-2.34,2.1
		c-0.7,0.47-1.32,0.86-1.87,1.17c-0.39,0.16-0.78,0.27-1.17,0.35c-0.47,0.16-0.93,0.16-1.41,0c-0.31,0-0.59-0.08-0.82-0.23
		c-0.23-0.23-0.43-0.47-0.59-0.7c-0.31-0.47-0.47-0.98-0.47-1.52c0-0.47,0.08-0.93,0.23-1.41c0.16-0.39,0.31-0.74,0.47-1.05
		c0.62-1.17,1.64-2.3,3.04-3.39c1.09-0.86,2.34-1.56,3.74-2.1c1.4-0.62,2.76-1.01,4.09-1.17c0.93-0.08,1.71-0.04,2.34,0.12
		c0.55,0.16,0.98,0.39,1.28,0.7c0.16,0.23,0.27,0.47,0.35,0.7c0.08,0.23,0.08,0.51,0,0.82c0,0.39-0.2,0.55-0.59,0.46
		c-0.31,0-0.5-0.16-0.59-0.46v-0.12c0-0.16-0.08-0.27-0.23-0.35c-0.16-0.08-0.35-0.12-0.59-0.12c-0.47-0.08-1.02-0.04-1.64,0.12
		c-0.55,0.08-1.17,0.27-1.87,0.59c-0.55,0.16-1.13,0.39-1.75,0.7c-1.17,0.55-2.22,1.21-3.16,1.98c-0.93,0.78-1.71,1.68-2.34,2.69
		c-0.08,0.23-0.2,0.47-0.35,0.7c-0.08,0.16-0.12,0.27-0.12,0.35c0,0.08,0,0.16,0,0.23c-0.08,0.16-0.1,0.29-0.06,0.41
		c0.04,0.12,0.1,0.18,0.18,0.18c0.23,0.16,0.7,0.16,1.41,0c0.55-0.23,1.09-0.5,1.64-0.82c1.09-0.62,2.1-1.44,3.04-2.46
		c0.39-0.55,0.78-1.05,1.17-1.52c0.31-0.55,0.62-1.13,0.93-1.75l0.12-0.12c0.62-0.62,1.21-0.66,1.75-0.12
		c0.55,0.47,0.62,1.02,0.23,1.64c-0.55,0.7-0.93,1.28-1.17,1.75c-0.39,0.7-0.66,1.28-0.82,1.75c0,0.23,0,0.43,0,0.59
		c0.08,0.16,0.16,0.27,0.23,0.35l0.12,0.12h0.12c0,0.08,0.04,0.12,0.12,0.12s0.19,0,0.35,0c0.23,0.08,0.55,0.08,0.93,0
		c1.17-0.08,2.5-0.5,3.98-1.28c1.17-0.62,2.37-1.44,3.62-2.46C370.15,51.99,370.43,52.03,370.66,52.34z"/>
</g>
<g>
	<path class="st0" d="M275.01,78.81c-0.28,0.33-0.59,0.58-0.93,0.73c-0.35,0.15-0.72,0.23-1.12,0.23c-0.43,0-0.82-0.07-1.18-0.22
		s-0.68-0.35-0.93-0.61c-0.26-0.26-0.46-0.57-0.61-0.93c-0.15-0.36-0.22-0.75-0.22-1.18c0-0.43,0.07-0.82,0.22-1.18
		c0.15-0.36,0.35-0.66,0.61-0.93c0.26-0.26,0.57-0.47,0.93-0.61c0.36-0.15,0.76-0.22,1.18-0.22c0.41,0,0.79,0.08,1.14,0.25
		c0.36,0.17,0.66,0.4,0.93,0.72l-0.58,0.43c-0.21-0.23-0.44-0.42-0.69-0.55c-0.25-0.14-0.52-0.2-0.82-0.2
		c-0.33,0-0.65,0.06-0.91,0.18c-0.28,0.12-0.51,0.29-0.7,0.49s-0.33,0.45-0.44,0.72c-0.1,0.28-0.15,0.58-0.15,0.89
		c0,0.31,0.05,0.61,0.15,0.89c0.1,0.28,0.25,0.52,0.44,0.72c0.19,0.21,0.43,0.37,0.7,0.49c0.28,0.12,0.58,0.18,0.91,0.18
		c0.3,0,0.59-0.07,0.84-0.22c0.25-0.15,0.47-0.33,0.66-0.56L275.01,78.81z"/>
	<path class="st0" d="M276.15,70.49h0.72v4.54h0.03c0.15-0.3,0.39-0.57,0.72-0.79s0.73-0.33,1.18-0.33c0.43,0,0.79,0.07,1.06,0.21
		c0.28,0.14,0.49,0.32,0.65,0.54c0.15,0.22,0.26,0.47,0.33,0.77c0.06,0.29,0.08,0.59,0.08,0.9v3.32h-0.72v-3.29
		c0-0.22-0.01-0.45-0.06-0.66s-0.11-0.4-0.22-0.58c-0.1-0.17-0.24-0.3-0.43-0.4s-0.41-0.15-0.71-0.15c-0.26,0-0.52,0.04-0.76,0.14
		c-0.24,0.1-0.44,0.23-0.61,0.43c-0.17,0.19-0.31,0.43-0.41,0.72c-0.1,0.29-0.15,0.62-0.15,1.01v2.79h-0.72V70.5h0.01V70.49z"/>
	<path class="st0" d="M282.57,76.84c0-0.43,0.07-0.82,0.22-1.18c0.15-0.36,0.35-0.66,0.61-0.93c0.26-0.26,0.57-0.47,0.93-0.61
		c0.36-0.15,0.76-0.22,1.18-0.22s0.82,0.07,1.18,0.22c0.36,0.15,0.66,0.35,0.93,0.61c0.26,0.26,0.47,0.57,0.61,0.93
		s0.22,0.75,0.22,1.18c0,0.43-0.07,0.82-0.22,1.18c-0.15,0.36-0.35,0.66-0.61,0.93c-0.26,0.26-0.57,0.47-0.93,0.61
		c-0.36,0.15-0.75,0.22-1.18,0.22s-0.82-0.07-1.18-0.22c-0.36-0.15-0.68-0.35-0.93-0.61c-0.26-0.26-0.46-0.57-0.61-0.93
		C282.64,77.66,282.57,77.27,282.57,76.84z M283.29,76.84c0,0.31,0.05,0.61,0.15,0.89c0.1,0.28,0.25,0.52,0.44,0.72
		c0.19,0.21,0.43,0.37,0.7,0.49c0.28,0.12,0.58,0.18,0.91,0.18s0.65-0.06,0.91-0.18c0.28-0.12,0.51-0.29,0.7-0.49
		c0.19-0.21,0.33-0.45,0.44-0.72c0.1-0.28,0.15-0.58,0.15-0.89c0-0.31-0.05-0.61-0.15-0.89c-0.1-0.28-0.25-0.52-0.44-0.72
		c-0.19-0.21-0.43-0.37-0.7-0.49c-0.28-0.12-0.58-0.18-0.91-0.18s-0.65,0.06-0.91,0.18c-0.28,0.12-0.51,0.29-0.7,0.49
		c-0.19,0.21-0.33,0.45-0.44,0.72C283.34,76.23,283.29,76.52,283.29,76.84z"/>
	<path class="st0" d="M294.75,78.81c-0.28,0.33-0.59,0.58-0.93,0.73c-0.35,0.15-0.72,0.23-1.12,0.23c-0.43,0-0.82-0.07-1.18-0.22
		c-0.36-0.15-0.68-0.35-0.93-0.61c-0.26-0.26-0.46-0.57-0.61-0.93c-0.15-0.36-0.22-0.75-0.22-1.18c0-0.43,0.07-0.82,0.22-1.18
		c0.15-0.36,0.35-0.66,0.61-0.93c0.26-0.26,0.57-0.47,0.93-0.61c0.36-0.15,0.76-0.22,1.18-0.22c0.41,0,0.79,0.08,1.14,0.25
		c0.36,0.17,0.66,0.4,0.93,0.72l-0.58,0.43c-0.21-0.23-0.44-0.42-0.69-0.55c-0.25-0.13-0.52-0.2-0.82-0.2
		c-0.33,0-0.65,0.06-0.91,0.18c-0.28,0.12-0.51,0.29-0.7,0.49c-0.19,0.21-0.33,0.45-0.44,0.72c-0.1,0.28-0.15,0.58-0.15,0.89
		c0,0.31,0.05,0.61,0.15,0.89c0.1,0.28,0.25,0.52,0.44,0.72c0.19,0.21,0.43,0.37,0.7,0.49c0.28,0.12,0.58,0.18,0.91,0.18
		c0.3,0,0.59-0.07,0.84-0.22c0.25-0.15,0.47-0.33,0.66-0.56L294.75,78.81z"/>
	<path class="st0" d="M295.57,76.84c0-0.43,0.07-0.82,0.22-1.18c0.15-0.36,0.35-0.66,0.61-0.93c0.26-0.26,0.57-0.47,0.93-0.61
		c0.36-0.15,0.76-0.22,1.18-0.22c0.43,0,0.82,0.07,1.18,0.22c0.36,0.15,0.66,0.35,0.93,0.61c0.26,0.26,0.47,0.57,0.61,0.93
		s0.22,0.75,0.22,1.18c0,0.43-0.07,0.82-0.22,1.18c-0.15,0.36-0.35,0.66-0.61,0.93c-0.26,0.26-0.57,0.47-0.93,0.61
		c-0.36,0.15-0.75,0.22-1.18,0.22c-0.43,0-0.82-0.07-1.18-0.22c-0.36-0.15-0.68-0.35-0.93-0.61c-0.26-0.26-0.46-0.57-0.61-0.93
		C295.64,77.66,295.57,77.27,295.57,76.84z M296.3,76.84c0,0.31,0.05,0.61,0.15,0.89c0.1,0.28,0.25,0.52,0.44,0.72
		c0.19,0.21,0.43,0.37,0.7,0.49c0.28,0.12,0.58,0.18,0.91,0.18s0.65-0.06,0.91-0.18c0.28-0.12,0.51-0.29,0.7-0.49
		c0.19-0.21,0.33-0.45,0.44-0.72c0.1-0.28,0.15-0.58,0.15-0.89c0-0.31-0.05-0.61-0.15-0.89c-0.1-0.28-0.25-0.52-0.44-0.72
		c-0.19-0.21-0.43-0.37-0.7-0.49c-0.28-0.12-0.58-0.18-0.91-0.18s-0.65,0.06-0.91,0.18c-0.28,0.12-0.51,0.29-0.7,0.49
		c-0.19,0.21-0.33,0.45-0.44,0.72C296.35,76.23,296.3,76.52,296.3,76.84z"/>
	<path class="st0" d="M303.19,70.49h0.72v9.14h-0.72V70.49z"/>
	<path class="st0" d="M310.31,77.29c0,0.28,0,0.52,0.01,0.73s0.01,0.43,0.01,0.61c0.01,0.18,0.01,0.36,0.03,0.52
		c0.01,0.17,0.03,0.32,0.05,0.48h-0.68c-0.05-0.28-0.07-0.58-0.07-0.91h-0.03c-0.21,0.36-0.47,0.63-0.78,0.79
		c-0.31,0.17-0.7,0.25-1.18,0.25c-0.24,0-0.47-0.03-0.72-0.1c-0.23-0.06-0.44-0.15-0.63-0.29c-0.18-0.13-0.33-0.3-0.46-0.51
		c-0.11-0.21-0.17-0.47-0.17-0.76c0-0.43,0.11-0.77,0.33-1.02c0.22-0.25,0.48-0.44,0.8-0.56c0.32-0.12,0.66-0.21,1.02-0.24
		c0.36-0.03,0.68-0.05,0.95-0.05h0.84V75.9c0-0.48-0.15-0.83-0.45-1.04c-0.3-0.21-0.68-0.31-1.12-0.31c-0.65,0-1.21,0.21-1.7,0.63
		l-0.43-0.49c0.26-0.26,0.6-0.45,1-0.59c0.4-0.13,0.78-0.2,1.14-0.2c0.68,0,1.22,0.15,1.62,0.47s0.61,0.83,0.61,1.55v1.37h0V77.29z
		 M308.86,76.83c-0.3,0-0.61,0.01-0.89,0.06c-0.29,0.04-0.54,0.11-0.78,0.21c-0.23,0.1-0.41,0.22-0.55,0.39
		c-0.14,0.17-0.21,0.36-0.21,0.61c0,0.17,0.03,0.32,0.11,0.45c0.08,0.13,0.17,0.24,0.29,0.33c0.12,0.08,0.26,0.15,0.4,0.19
		c0.15,0.04,0.3,0.07,0.46,0.07c0.39,0,0.71-0.06,0.96-0.17c0.25-0.11,0.45-0.26,0.6-0.44c0.15-0.18,0.25-0.39,0.31-0.61
		c0.06-0.23,0.08-0.46,0.08-0.7v-0.37L308.86,76.83L308.86,76.83z"/>
	<path class="st0" d="M314.99,74.7h-1.6v3.64c0,0.25,0.07,0.44,0.21,0.58c0.14,0.14,0.33,0.21,0.57,0.21c0.14,0,0.28-0.01,0.41-0.05
		c0.13-0.03,0.28-0.08,0.4-0.14l0.06,0.66c-0.14,0.05-0.29,0.1-0.47,0.13c-0.18,0.04-0.33,0.06-0.47,0.06
		c-0.26,0-0.48-0.03-0.66-0.11c-0.18-0.08-0.33-0.18-0.45-0.31c-0.11-0.13-0.2-0.28-0.25-0.46c-0.05-0.17-0.08-0.36-0.08-0.56V74.7
		h-1.21v-0.66h1.21v-1.61h0.72v1.61h1.6L314.99,74.7L314.99,74.7L314.99,74.7z"/>
	<path class="st0" d="M321.22,78.58c-0.29,0.43-0.63,0.73-1.05,0.91c-0.42,0.18-0.87,0.28-1.37,0.28c-0.43,0-0.82-0.07-1.16-0.22
		c-0.35-0.15-0.65-0.35-0.9-0.61c-0.25-0.26-0.44-0.57-0.58-0.93c-0.14-0.36-0.2-0.76-0.2-1.19c0-0.43,0.07-0.8,0.21-1.16
		c0.14-0.36,0.33-0.66,0.58-0.93c0.25-0.26,0.54-0.47,0.88-0.61c0.33-0.15,0.72-0.22,1.12-0.22c0.43,0,0.8,0.08,1.13,0.22
		c0.33,0.15,0.61,0.35,0.82,0.6c0.22,0.25,0.39,0.53,0.5,0.84c0.11,0.31,0.17,0.63,0.17,0.96v0.51h-4.69c0,0.15,0.03,0.35,0.08,0.59
		c0.06,0.24,0.17,0.47,0.33,0.7c0.17,0.22,0.38,0.43,0.65,0.58s0.62,0.24,1.05,0.24c0.37,0,0.72-0.08,1.08-0.26
		c0.35-0.18,0.61-0.43,0.79-0.72L321.22,78.58z M320.65,76.37c0-0.25-0.05-0.48-0.15-0.7c-0.1-0.22-0.24-0.4-0.41-0.58
		c-0.17-0.17-0.38-0.29-0.61-0.4c-0.24-0.1-0.49-0.15-0.76-0.15c-0.4,0-0.72,0.08-0.98,0.24c-0.26,0.17-0.47,0.35-0.62,0.55
		c-0.15,0.21-0.26,0.42-0.33,0.61c-0.06,0.2-0.1,0.33-0.1,0.4L320.65,76.37L320.65,76.37L320.65,76.37z"/>
	<path class="st0" d="M330.5,77.29c0,0.28,0,0.52,0.01,0.73c0.01,0.22,0.01,0.43,0.01,0.61c0.01,0.18,0.01,0.36,0.03,0.52
		c0.01,0.17,0.03,0.32,0.05,0.48h-0.68c-0.05-0.28-0.07-0.58-0.07-0.91h-0.03c-0.21,0.36-0.47,0.63-0.78,0.79
		c-0.31,0.17-0.7,0.25-1.18,0.25c-0.24,0-0.48-0.03-0.72-0.1c-0.23-0.06-0.44-0.15-0.63-0.29c-0.18-0.13-0.33-0.3-0.46-0.51
		c-0.12-0.21-0.17-0.47-0.17-0.76c0-0.43,0.11-0.77,0.33-1.02c0.22-0.25,0.48-0.44,0.8-0.56c0.32-0.12,0.66-0.21,1.02-0.24
		c0.36-0.03,0.68-0.05,0.95-0.05h0.84V75.9c0-0.48-0.15-0.83-0.45-1.04c-0.3-0.21-0.68-0.31-1.12-0.31c-0.65,0-1.22,0.21-1.7,0.63
		l-0.43-0.49c0.26-0.26,0.6-0.45,1-0.59c0.4-0.13,0.78-0.2,1.14-0.2c0.68,0,1.22,0.15,1.62,0.47c0.4,0.32,0.61,0.83,0.61,1.55v1.37
		h0V77.29z M329.05,76.83c-0.3,0-0.61,0.01-0.89,0.06c-0.29,0.04-0.54,0.11-0.78,0.21c-0.23,0.1-0.41,0.22-0.55,0.39
		c-0.14,0.17-0.21,0.36-0.21,0.61c0,0.17,0.03,0.32,0.11,0.45c0.08,0.13,0.17,0.24,0.29,0.33c0.12,0.08,0.26,0.15,0.4,0.19
		c0.15,0.04,0.3,0.07,0.46,0.07c0.39,0,0.71-0.06,0.96-0.17c0.25-0.11,0.45-0.26,0.6-0.44c0.15-0.18,0.25-0.39,0.31-0.61
		c0.06-0.23,0.08-0.46,0.08-0.7v-0.37L329.05,76.83L329.05,76.83z"/>
	<path class="st0" d="M332.43,75.62c0-0.1,0-0.23-0.01-0.38c-0.01-0.15-0.01-0.3-0.01-0.46c0-0.15-0.01-0.29-0.01-0.43
		c-0.01-0.13-0.01-0.23-0.01-0.31h0.72c0.01,0.21,0.01,0.42,0.01,0.61s0.01,0.32,0.03,0.37c0.18-0.33,0.43-0.61,0.72-0.82
		c0.29-0.21,0.65-0.31,1.06-0.31c0.07,0,0.15,0.01,0.22,0.01c0.07,0.01,0.14,0.03,0.22,0.04l-0.08,0.72
		c-0.1-0.03-0.19-0.05-0.28-0.05c-0.31,0-0.59,0.05-0.82,0.15c-0.23,0.1-0.43,0.24-0.57,0.42c-0.15,0.18-0.26,0.39-0.33,0.62
		c-0.08,0.23-0.11,0.49-0.11,0.77v3.05h-0.72v-4h-0.01V75.62z"/>
	<path class="st0" d="M339.19,74.7h-1.6v3.64c0,0.25,0.07,0.44,0.21,0.58c0.14,0.14,0.33,0.21,0.57,0.21c0.14,0,0.28-0.01,0.41-0.05
		c0.13-0.03,0.28-0.08,0.4-0.14l0.06,0.66c-0.14,0.05-0.29,0.1-0.47,0.13c-0.18,0.04-0.33,0.06-0.47,0.06
		c-0.26,0-0.48-0.03-0.66-0.11c-0.18-0.08-0.33-0.18-0.45-0.31c-0.11-0.13-0.2-0.28-0.25-0.46c-0.05-0.17-0.08-0.36-0.08-0.56V74.7
		h-1.21v-0.66h1.21v-1.61h0.72v1.61h1.6L339.19,74.7L339.19,74.7L339.19,74.7z"/>
	<path class="st0" d="M345.42,78.58c-0.29,0.43-0.63,0.73-1.05,0.91c-0.42,0.18-0.87,0.28-1.37,0.28c-0.43,0-0.82-0.07-1.16-0.22
		c-0.35-0.15-0.65-0.35-0.9-0.61c-0.25-0.26-0.44-0.57-0.58-0.93c-0.14-0.36-0.2-0.76-0.2-1.19c0-0.43,0.07-0.8,0.21-1.16
		c0.14-0.36,0.33-0.66,0.58-0.93c0.25-0.26,0.54-0.47,0.88-0.61c0.33-0.15,0.72-0.22,1.12-0.22c0.43,0,0.8,0.08,1.13,0.22
		c0.33,0.15,0.61,0.35,0.82,0.6c0.22,0.25,0.39,0.53,0.5,0.84c0.11,0.31,0.17,0.63,0.17,0.96v0.51h-4.69c0,0.15,0.03,0.35,0.08,0.59
		c0.06,0.24,0.17,0.47,0.33,0.7c0.17,0.22,0.38,0.43,0.65,0.58s0.62,0.24,1.05,0.24c0.37,0,0.72-0.08,1.08-0.26
		c0.35-0.18,0.61-0.43,0.79-0.72L345.42,78.58z M344.86,76.37c0-0.25-0.05-0.48-0.15-0.7c-0.1-0.22-0.24-0.4-0.41-0.58
		c-0.17-0.17-0.38-0.29-0.61-0.4c-0.24-0.1-0.49-0.15-0.76-0.15c-0.4,0-0.72,0.08-0.98,0.24c-0.26,0.17-0.47,0.35-0.62,0.55
		c-0.15,0.21-0.26,0.42-0.33,0.61c-0.06,0.2-0.1,0.33-0.1,0.4L344.86,76.37L344.86,76.37L344.86,76.37z"/>
	<path class="st0" d="M347.23,78.2c0.15,0.3,0.38,0.53,0.68,0.68s0.61,0.23,0.94,0.23c0.15,0,0.3-0.03,0.46-0.07
		c0.15-0.05,0.29-0.12,0.41-0.21c0.12-0.08,0.22-0.2,0.29-0.32c0.08-0.12,0.11-0.26,0.11-0.43c0-0.26-0.08-0.45-0.25-0.58
		c-0.17-0.13-0.37-0.23-0.61-0.3s-0.51-0.14-0.79-0.19c-0.29-0.05-0.55-0.13-0.79-0.24c-0.24-0.11-0.45-0.26-0.61-0.46
		c-0.17-0.2-0.25-0.47-0.25-0.82c0-0.28,0.05-0.51,0.17-0.72c0.11-0.2,0.26-0.37,0.44-0.5c0.18-0.13,0.39-0.23,0.61-0.29
		c0.22-0.06,0.46-0.1,0.69-0.1c0.46,0,0.86,0.08,1.19,0.25c0.33,0.17,0.6,0.43,0.78,0.79l-0.66,0.39c-0.14-0.26-0.31-0.45-0.51-0.59
		c-0.2-0.14-0.47-0.2-0.8-0.2c-0.13,0-0.26,0.01-0.4,0.06c-0.14,0.04-0.26,0.1-0.38,0.17c-0.12,0.08-0.21,0.17-0.29,0.28
		c-0.08,0.11-0.11,0.24-0.11,0.39c0,0.25,0.08,0.43,0.25,0.55c0.17,0.12,0.37,0.22,0.61,0.29c0.24,0.07,0.51,0.13,0.79,0.17
		c0.29,0.05,0.55,0.13,0.79,0.23c0.24,0.1,0.45,0.26,0.61,0.47c0.17,0.21,0.25,0.5,0.25,0.88c0,0.29-0.05,0.54-0.17,0.76
		c-0.11,0.22-0.26,0.4-0.45,0.54c-0.19,0.15-0.4,0.25-0.65,0.33c-0.24,0.08-0.49,0.11-0.76,0.11c-0.48,0-0.93-0.1-1.32-0.28
		c-0.4-0.18-0.71-0.47-0.93-0.86L347.23,78.2z"/>
	<path class="st0" d="M356.71,77.29c0,0.28,0,0.52,0.01,0.73c0.01,0.22,0.01,0.43,0.01,0.61c0.01,0.18,0.01,0.36,0.03,0.52
		c0.01,0.17,0.03,0.32,0.05,0.48h-0.68c-0.05-0.28-0.07-0.58-0.07-0.91h-0.03c-0.21,0.36-0.47,0.63-0.78,0.79
		c-0.31,0.17-0.7,0.25-1.18,0.25c-0.24,0-0.47-0.03-0.72-0.1c-0.23-0.06-0.44-0.15-0.63-0.29c-0.18-0.13-0.33-0.3-0.46-0.51
		c-0.11-0.21-0.17-0.47-0.17-0.76c0-0.43,0.11-0.77,0.33-1.02c0.22-0.25,0.48-0.44,0.8-0.56c0.32-0.12,0.66-0.21,1.02-0.24
		c0.36-0.03,0.68-0.05,0.95-0.05h0.84V75.9c0-0.48-0.15-0.83-0.45-1.04c-0.3-0.21-0.68-0.31-1.12-0.31c-0.65,0-1.21,0.21-1.7,0.63
		l-0.43-0.49c0.26-0.26,0.6-0.45,1-0.59c0.4-0.13,0.78-0.2,1.14-0.2c0.68,0,1.22,0.15,1.62,0.47s0.61,0.83,0.61,1.55v1.37h0V77.29z
		 M355.25,76.83c-0.3,0-0.61,0.01-0.89,0.06c-0.29,0.04-0.54,0.11-0.78,0.21c-0.23,0.1-0.41,0.22-0.55,0.39
		c-0.14,0.17-0.21,0.36-0.21,0.61c0,0.17,0.03,0.32,0.11,0.45c0.08,0.13,0.17,0.24,0.29,0.33c0.12,0.08,0.26,0.15,0.4,0.19
		c0.15,0.04,0.3,0.07,0.46,0.07c0.39,0,0.71-0.06,0.96-0.17c0.25-0.11,0.45-0.26,0.6-0.44c0.15-0.18,0.25-0.39,0.31-0.61
		c0.06-0.23,0.08-0.46,0.08-0.7v-0.37L355.25,76.83L355.25,76.83z"/>
	<path class="st0" d="M358.64,75.62c0-0.1,0-0.23-0.01-0.38c-0.01-0.15-0.01-0.3-0.01-0.46c0-0.15-0.01-0.29-0.01-0.43
		c-0.01-0.13-0.01-0.23-0.01-0.31h0.72c0.01,0.21,0.01,0.42,0.01,0.61s0.01,0.32,0.03,0.37h0.03c0.15-0.3,0.39-0.57,0.72-0.79
		c0.33-0.22,0.73-0.33,1.18-0.33c0.43,0,0.79,0.07,1.06,0.21c0.28,0.14,0.49,0.32,0.65,0.54c0.15,0.22,0.26,0.47,0.33,0.77
		s0.08,0.59,0.08,0.9v3.32h-0.72v-3.29c0-0.22-0.01-0.45-0.06-0.66c-0.04-0.21-0.11-0.4-0.22-0.58c-0.1-0.17-0.24-0.3-0.43-0.4
		c-0.18-0.1-0.41-0.15-0.71-0.15c-0.26,0-0.52,0.04-0.76,0.14c-0.24,0.1-0.44,0.23-0.61,0.43c-0.17,0.2-0.31,0.43-0.41,0.72
		c-0.1,0.29-0.15,0.62-0.15,1.01v2.79h-0.72L358.64,75.62L358.64,75.62z"/>
	<path class="st0" d="M369.71,77.29c0,0.28,0,0.52,0.01,0.73s0.01,0.43,0.01,0.61c0.01,0.18,0.01,0.36,0.03,0.52
		c0.01,0.17,0.03,0.32,0.05,0.48h-0.68c-0.05-0.28-0.07-0.58-0.07-0.91h-0.03c-0.21,0.36-0.47,0.63-0.78,0.79
		c-0.31,0.17-0.7,0.25-1.18,0.25c-0.24,0-0.48-0.03-0.72-0.1c-0.23-0.06-0.44-0.15-0.63-0.29c-0.18-0.13-0.33-0.3-0.46-0.51
		c-0.12-0.21-0.17-0.47-0.17-0.76c0-0.43,0.11-0.77,0.33-1.02c0.22-0.25,0.48-0.44,0.8-0.56c0.32-0.12,0.66-0.21,1.02-0.24
		c0.36-0.03,0.68-0.05,0.95-0.05h0.84V75.9c0-0.48-0.15-0.83-0.45-1.04c-0.3-0.21-0.68-0.31-1.12-0.31c-0.65,0-1.22,0.21-1.7,0.63
		l-0.43-0.49c0.26-0.26,0.6-0.45,1-0.59c0.4-0.13,0.78-0.2,1.14-0.2c0.68,0,1.22,0.15,1.62,0.47s0.61,0.83,0.61,1.55v1.37h0V77.29z
		 M368.26,76.83c-0.3,0-0.61,0.01-0.89,0.06c-0.29,0.04-0.54,0.11-0.78,0.21c-0.23,0.1-0.41,0.22-0.55,0.39
		c-0.14,0.17-0.21,0.36-0.21,0.61c0,0.17,0.03,0.32,0.11,0.45c0.08,0.13,0.17,0.24,0.29,0.33c0.12,0.08,0.26,0.15,0.4,0.19
		c0.15,0.04,0.3,0.07,0.46,0.07c0.39,0,0.71-0.06,0.96-0.17c0.25-0.11,0.45-0.26,0.6-0.44c0.15-0.18,0.25-0.39,0.31-0.61
		c0.06-0.23,0.08-0.46,0.08-0.7v-0.37L368.26,76.83L368.26,76.83z"/>
	<path class="st0" d="M371.76,70.49h0.72v9.14h-0.72V70.49z"/>
</g>
</svg>
