<?xml version="1.0" encoding="UTF-8" standalone="no"?>
<!-- Generator: Adobe Illustrator 23.0.3, SVG Export Plug-In . SVG Version: 6.00 Build 0)  -->

<svg
   xmlns:dc="http://purl.org/dc/elements/1.1/"
   xmlns:cc="http://creativecommons.org/ns#"
   xmlns:rdf="http://www.w3.org/1999/02/22-rdf-syntax-ns#"
   xmlns:svg="http://www.w3.org/2000/svg"
   xmlns="http://www.w3.org/2000/svg"
   xmlns:sodipodi="http://sodipodi.sourceforge.net/DTD/sodipodi-0.dtd"
   xmlns:inkscape="http://www.inkscape.org/namespaces/inkscape"
   version="1.1"
   id="Layer_1"
   x="0px"
   y="0px"
   viewBox="0 0 376.41546 88.390483"
   xml:space="preserve"
   sodipodi:docname="carolablanco_edit.svg"
   width="376.41547"
   height="88.390488"
   inkscape:version="0.92.3 (2405546, 2018-03-11)"><metadata
   id="metadata3887"><rdf:RDF><cc:Work
       rdf:about=""><dc:format>image/svg+xml</dc:format><dc:type
         rdf:resource="http://purl.org/dc/dcmitype/StillImage" /><dc:title></dc:title></cc:Work></rdf:RDF></metadata><defs
   id="defs3885" /><sodipodi:namedview
   pagecolor="#ffffff"
   bordercolor="#666666"
   borderopacity="1"
   objecttolerance="10"
   gridtolerance="10"
   guidetolerance="10"
   inkscape:pageopacity="0"
   inkscape:pageshadow="2"
   inkscape:window-width="1920"
   inkscape:window-height="1052"
   id="namedview3883"
   showgrid="false"
   inkscape:pagecheckerboard="true"
   inkscape:zoom="1.4631769"
   inkscape:cx="145.33546"
   inkscape:cy="86.11057"
   inkscape:window-x="0"
   inkscape:window-y="0"
   inkscape:window-maximized="1"
   inkscape:current-layer="Layer_1" />
<style
   type="text/css"
   id="style3828">
	.st0{fill:#FFFFFF;}
</style>
<g
   id="g3842"
   transform="matrix(0.6978378,0,0,0.6978378,-78.592238,-164.81817)">
	<path
   class="st0"
   d="m 554.62,243.09 c 0,0 0.17,0.6 0.51,1.8 0.34,1.2 0.4,2.43 0.17,3.68 -0.34,2.29 -1.37,4.46 -3.08,6.51 -0.8,0.8 -1.71,1.54 -2.74,2.23 -0.8,0.69 -1.77,1.31 -2.91,1.88 -1.26,0.57 -2.34,0.97 -3.26,1.2 -0.57,0.11 -1.6,0.34 -3.08,0.69 -4,0.92 -8.34,1.54 -13.02,1.89 -3.77,0.23 -8.05,0.34 -12.85,0.34 -4.11,0 -8.46,-0.51 -13.02,-1.54 -2.51,-0.46 -5.31,-1.08 -8.4,-1.88 -9.03,7.2 -17.14,15.76 -24.33,25.7 -5.03,6.85 -9.42,14.11 -13.19,21.76 -0.46,1.14 -1.32,3.03 -2.57,5.66 -0.12,0.23 -0.49,1.06 -1.11,2.48 -0.63,1.43 -1.11,2.54 -1.46,3.34 -1.6,4.34 -2.86,8.34 -3.77,11.99 -1.03,4.57 -1.49,8.63 -1.37,12.17 0.11,2.06 0.46,4 1.03,5.83 0.57,1.83 1.43,3.49 2.57,4.97 0.69,0.69 1.37,1.32 2.06,1.89 0.91,0.69 1.71,1.2 2.4,1.54 0.11,0.12 0.23,0.2 0.34,0.26 0.11,0.06 0.28,0.12 0.51,0.17 0.23,0.06 0.34,0.14 0.34,0.26 0.69,0.23 1.14,0.4 1.37,0.51 1.03,0.23 2,0.4 2.91,0.51 1.83,0.23 3.83,0.28 6,0.17 1.94,-0.23 3.94,-0.63 6,-1.2 3.77,-1.14 7.6,-2.74 11.48,-4.8 3.43,-1.94 6.91,-4.29 10.45,-7.03 6.28,-5.14 12.05,-11.31 17.31,-18.51 2.63,-3.77 4.85,-7.37 6.68,-10.79 0.91,-1.94 1.71,-3.88 2.4,-5.83 0.8,-2.17 1.31,-4.11 1.54,-5.83 0.23,-2.28 -0.06,-4.11 -0.86,-5.48 -0.92,-1.37 -2.29,-2.06 -4.11,-2.06 h -0.34 -0.34 -0.69 c -0.23,0 -0.51,0.03 -0.86,0.09 -0.34,0.06 -0.57,0.09 -0.69,0.09 -0.12,0.12 -0.26,0.17 -0.43,0.17 -0.17,0 -0.34,0.03 -0.51,0.09 -0.17,0.06 -0.32,0.09 -0.43,0.09 -0.11,0 -0.26,0.03 -0.43,0.09 -0.17,0.06 -0.37,0.12 -0.6,0.17 -0.23,0.06 -0.4,0.09 -0.51,0.09 -1.94,0.68 -3.71,1.54 -5.31,2.57 -0.12,0 -0.57,0.29 -1.37,0.86 -0.12,0 -0.32,0.09 -0.6,0.26 -0.29,0.17 -0.49,0.32 -0.6,0.43 l -1.2,1.03 c -0.69,0.46 -1.09,0.74 -1.2,0.86 l -1.2,1.03 c -0.46,0.46 -0.86,0.8 -1.2,1.03 -0.12,0.12 -0.43,0.46 -0.94,1.03 -0.51,0.57 -0.94,0.97 -1.29,1.2 -2.29,2.4 -4.91,5.66 -7.88,9.77 l -1.71,2.57 -1.71,2.74 c -1.37,2.06 -2.4,3.83 -3.08,5.31 -0.92,1.94 -1.66,3.83 -2.23,5.65 -0.34,1.03 -0.63,2 -0.86,2.91 -0.23,1.14 -0.34,2.06 -0.34,2.74 0.11,1.26 -0.4,1.89 -1.54,1.89 -1.14,0.11 -1.77,-0.4 -1.88,-1.54 -0.12,-1.03 -0.06,-2.28 0.17,-3.77 0.11,-1.03 0.34,-2.11 0.69,-3.26 0.57,-2.06 1.31,-4.17 2.23,-6.34 0.57,-1.14 1.08,-2.17 1.54,-3.08 0.11,0 0.69,-0.91 1.71,-2.74 0.91,-1.48 1.48,-2.4 1.71,-2.74 l 1.89,-2.74 c 0.46,-0.69 1.08,-1.6 1.88,-2.74 0.11,0 0.43,-0.34 0.94,-1.03 0.51,-0.69 0.88,-1.2 1.11,-1.54 l 2.23,-2.57 c 0.23,-0.23 0.46,-0.46 0.69,-0.69 0.23,-0.23 0.48,-0.51 0.77,-0.86 0.28,-0.34 0.54,-0.63 0.77,-0.86 3.54,-3.54 7.08,-6.28 10.62,-8.23 4.34,-2.28 8.74,-3.43 13.19,-3.43 1.37,0.12 2.63,0.51 3.77,1.2 1.14,0.69 2.06,1.66 2.74,2.91 0.57,1.03 0.91,2.23 1.03,3.6 0.11,1.14 0.11,2.34 0,3.6 -0.57,3.54 -2.12,7.66 -4.63,12.34 -1.71,3.43 -4,7.14 -6.85,11.14 -5.26,7.54 -11.08,13.94 -17.48,19.19 -3.54,2.97 -7.08,5.48 -10.62,7.54 -1.94,1.14 -3.94,2.17 -6,3.08 -2.06,0.91 -4.11,1.65 -6.17,2.23 -2.17,0.69 -4.34,1.2 -6.51,1.54 -2.4,0.34 -4.69,0.4 -6.85,0.17 -1.03,-0.12 -2.17,-0.34 -3.43,-0.69 -0.46,-0.12 -1.03,-0.34 -1.71,-0.69 l -1.54,-0.69 c -0.92,-0.46 -1.94,-1.09 -3.08,-1.88 -0.92,-0.69 -1.77,-1.48 -2.57,-2.4 -1.6,-1.94 -2.8,-4.05 -3.6,-6.34 -0.69,-2.06 -1.09,-4.34 -1.2,-6.85 -0.23,-4 0.23,-8.45 1.37,-13.37 0.91,-3.77 2.23,-7.94 3.94,-12.51 0.34,-0.57 0.63,-1.2 0.86,-1.88 0.23,-0.69 0.51,-1.43 0.86,-2.23 0.34,-0.8 0.63,-1.43 0.86,-1.88 1.26,-2.74 2.17,-4.68 2.74,-5.83 3.88,-7.88 8.4,-15.31 13.54,-22.28 6.97,-9.37 14.74,-17.59 23.3,-24.68 -2.06,-0.57 -4.66,-1.34 -7.8,-2.31 -3.14,-0.97 -6.08,-1.89 -8.82,-2.74 -2.74,-0.86 -5.31,-1.57 -7.71,-2.14 -8.57,-2.4 -16.91,-4.23 -25.02,-5.48 -8.46,-1.26 -16.91,-1.88 -25.36,-1.88 -8.34,0.11 -16.85,0.8 -25.53,2.06 -3.77,0.57 -7.94,1.31 -12.51,2.23 l -6.17,1.54 -6.34,1.37 c -18.16,4.46 -34.9,8.23 -50.21,11.31 -17.94,3.66 -34.84,6.57 -50.72,8.74 -18.96,2.51 -36.16,3.94 -51.58,4.28 -19.65,0.46 -36.79,-0.86 -51.41,-3.94 -9.37,-2.06 -17.65,-4.8 -24.85,-8.23 -8.46,-3.88 -15.59,-8.8 -21.42,-14.74 -0.57,-0.57 -0.57,-1.11 0,-1.63 0.57,-0.52 1.14,-0.54 1.71,-0.09 5.83,5.6 12.79,10.23 20.91,13.88 7.31,3.2 15.42,5.71 24.33,7.54 7.54,1.6 15.94,2.69 25.19,3.26 8,0.57 16.51,0.74 25.53,0.51 7.77,-0.23 16.28,-0.74 25.53,-1.54 8.11,-0.69 16.62,-1.65 25.53,-2.91 15.31,-2.06 32.16,-4.85 50.55,-8.4 15.31,-3.08 32.04,-6.74 50.21,-10.97 l 6.34,-1.37 6.34,-1.54 c 4.46,-0.91 8.68,-1.65 12.68,-2.23 8.79,-1.26 17.42,-1.88 25.88,-1.88 8.45,0 17.02,0.69 25.7,2.06 8.23,1.26 16.68,3.08 25.36,5.48 3.2,0.92 7.65,2.26 13.37,4.03 5.71,1.77 9.48,2.94 11.31,3.51 0.11,0 0.51,0.12 1.2,0.34 4.11,-3.2 8.34,-6.11 12.68,-8.74 8.22,-4.91 16.22,-8.34 23.99,-10.28 2.63,-0.57 4.8,-0.97 6.51,-1.2 2.28,-0.23 4.51,-0.28 6.68,-0.17 1.03,0.11 2.17,0.32 3.43,0.6 1.26,0.29 2.34,0.6 3.26,0.94 0.69,0.23 1.2,0.4 1.54,0.51 0.34,0.23 0.91,0.51 1.71,0.86 1.14,0.8 2.06,1.6 2.74,2.4 0.9,1.02 1.36,1.54 1.36,1.54 z m -2.06,5.14 c 0.23,-1.83 -0.29,-3.43 -1.54,-4.8 -0.46,-0.57 -1.14,-1.14 -2.06,-1.71 -0.69,-0.34 -1.14,-0.57 -1.37,-0.69 -0.34,-0.11 -0.8,-0.28 -1.37,-0.51 -1.83,-0.57 -3.77,-0.91 -5.83,-1.03 -2.06,-0.23 -4.11,-0.17 -6.17,0.17 -1.6,0.23 -3.6,0.63 -6,1.2 -7.43,1.94 -15.08,5.37 -22.96,10.28 -3.43,2.06 -6.74,4.34 -9.94,6.85 2.28,0.57 4.46,1.03 6.51,1.37 4.46,1.03 8.62,1.49 12.51,1.37 4.68,0.11 8.91,0 12.68,-0.34 4.8,-0.34 8.97,-0.91 12.51,-1.71 1.48,-0.34 2.51,-0.63 3.08,-0.86 0.8,-0.23 1.71,-0.57 2.74,-1.03 0.91,-0.46 1.77,-0.97 2.57,-1.54 0.8,-0.69 1.54,-1.37 2.23,-2.06 1.38,-1.59 2.18,-3.25 2.41,-4.96 z"
   id="path3830"
   inkscape:connector-curvature="0"
   style="fill:#ffffff" />
	<path
   class="st0"
   d="m 556.84,311.46 c 0.34,0.46 0.34,0.86 0,1.2 -1.83,1.71 -3.66,3.08 -5.48,4.11 -2.4,1.37 -4.57,2.29 -6.51,2.74 -0.8,0.12 -1.49,0.12 -2.06,0 -0.34,0 -0.69,-0.06 -1.03,-0.17 -0.12,0 -0.29,-0.06 -0.51,-0.17 -0.34,-0.11 -0.57,-0.23 -0.69,-0.34 -0.34,-0.11 -0.66,-0.34 -0.94,-0.69 -0.29,-0.34 -0.49,-0.74 -0.6,-1.2 -0.23,-0.57 -0.34,-1.26 -0.34,-2.06 -1.37,1.26 -2.51,2.29 -3.43,3.08 -1.03,0.69 -1.94,1.26 -2.74,1.71 -0.57,0.23 -1.14,0.4 -1.71,0.51 -0.69,0.23 -1.37,0.23 -2.06,0 -0.46,0 -0.86,-0.11 -1.2,-0.34 -0.34,-0.34 -0.63,-0.69 -0.86,-1.03 -0.46,-0.69 -0.69,-1.43 -0.69,-2.23 0,-0.69 0.12,-1.37 0.34,-2.06 0.23,-0.57 0.46,-1.08 0.69,-1.54 0.91,-1.71 2.4,-3.37 4.46,-4.97 1.6,-1.26 3.43,-2.28 5.48,-3.08 2.06,-0.91 4.05,-1.48 6,-1.71 1.37,-0.11 2.51,-0.06 3.43,0.17 0.8,0.23 1.43,0.57 1.88,1.03 0.23,0.34 0.4,0.69 0.51,1.03 0.11,0.34 0.11,0.75 0,1.2 0,0.57 -0.29,0.8 -0.86,0.68 -0.46,0 -0.74,-0.23 -0.86,-0.68 v -0.17 c 0,-0.23 -0.11,-0.4 -0.34,-0.51 -0.23,-0.11 -0.51,-0.17 -0.86,-0.17 -0.69,-0.11 -1.49,-0.06 -2.4,0.17 -0.8,0.12 -1.71,0.4 -2.74,0.86 -0.8,0.23 -1.66,0.57 -2.57,1.03 -1.71,0.8 -3.26,1.77 -4.63,2.91 -1.37,1.14 -2.51,2.46 -3.43,3.94 -0.12,0.34 -0.29,0.69 -0.51,1.03 -0.12,0.23 -0.17,0.4 -0.17,0.51 0,0.12 0,0.23 0,0.34 -0.12,0.23 -0.14,0.43 -0.09,0.6 0.06,0.17 0.14,0.26 0.26,0.26 0.34,0.23 1.03,0.23 2.06,0 0.8,-0.34 1.6,-0.74 2.4,-1.2 1.6,-0.91 3.08,-2.11 4.46,-3.6 0.57,-0.8 1.14,-1.54 1.71,-2.23 0.46,-0.8 0.91,-1.65 1.37,-2.57 l 0.17,-0.17 c 0.91,-0.91 1.77,-0.97 2.57,-0.17 0.8,0.69 0.91,1.49 0.34,2.4 -0.8,1.03 -1.37,1.88 -1.71,2.57 -0.57,1.03 -0.97,1.88 -1.2,2.57 0,0.34 0,0.63 0,0.86 0.11,0.23 0.23,0.4 0.34,0.51 l 0.17,0.17 h 0.17 c 0,0.12 0.06,0.17 0.17,0.17 0.11,0 0.28,0 0.51,0 0.34,0.12 0.8,0.12 1.37,0 1.71,-0.11 3.66,-0.74 5.83,-1.88 1.71,-0.91 3.48,-2.11 5.31,-3.6 0.48,-0.34 0.88,-0.28 1.22,0.18 z"
   id="path3832"
   inkscape:connector-curvature="0"
   style="fill:#ffffff" />
	<path
   class="st0"
   d="m 582.03,311.12 c 0,0 0.26,0.2 0.77,0.6 0.51,0.4 0.6,0.83 0.26,1.29 -2.51,3.08 -5.31,6.23 -8.4,9.42 -3.31,3.31 -6.4,6.17 -9.25,8.57 -1.71,1.37 -3.43,2.63 -5.14,3.77 -1.26,0.69 -2.34,1.14 -3.26,1.37 -0.34,0.12 -0.69,0.17 -1.03,0.17 -0.57,0 -1.08,-0.17 -1.54,-0.51 -0.23,-0.11 -0.4,-0.28 -0.51,-0.51 -0.11,-0.11 -0.17,-0.23 -0.17,-0.34 l -0.17,-0.34 c -0.23,-0.34 -0.34,-0.68 -0.34,-1.03 -0.23,-1.14 -0.11,-2.46 0.34,-3.94 0.34,-0.8 0.86,-1.83 1.54,-3.08 0.34,-0.57 0.86,-1.46 1.54,-2.66 0.68,-1.2 1.2,-2.08 1.54,-2.66 0.57,-1.03 0.97,-1.88 1.2,-2.57 0.11,-0.34 0.23,-0.69 0.34,-1.03 0,-0.23 -0.06,-0.51 -0.17,-0.86 -0.12,-0.57 -0.46,-1.26 -1.03,-2.06 -0.12,-0.23 -0.29,-0.48 -0.51,-0.77 -0.23,-0.28 -0.46,-0.6 -0.68,-0.94 -0.23,-0.34 -0.46,-0.63 -0.69,-0.86 -0.46,-0.69 -0.74,-1.37 -0.86,-2.06 -0.11,-0.46 -0.17,-0.91 -0.17,-1.37 0,-0.46 0.06,-0.91 0.17,-1.37 0.34,-0.8 0.86,-1.83 1.54,-3.08 1.03,-1.71 2.28,-3.48 3.77,-5.31 0.8,-1.03 1.54,-1.89 2.23,-2.57 0.57,-0.46 1.03,-0.86 1.37,-1.2 l 0.51,-0.17 0.34,-0.17 0.34,-0.17 0.34,-0.17 h 0.34 c 0.11,0 0.23,0 0.34,0 0.34,0 0.69,0.06 1.03,0.17 0.11,0.12 0.23,0.23 0.34,0.34 0.11,0.12 0.23,0.23 0.34,0.34 0.23,0.23 0.34,0.57 0.34,1.03 0.11,0.23 0.17,0.46 0.17,0.69 0,0.34 -0.06,0.74 -0.17,1.2 -0.11,0.57 -0.34,1.14 -0.68,1.71 -0.34,0.57 -0.92,1.49 -1.71,2.74 l -1.03,1.37 c -0.34,0.46 -0.69,0.92 -1.03,1.37 -0.69,0.92 -1.37,1.71 -2.06,2.4 l -2.23,2.4 c 0.11,0.23 0.34,0.57 0.68,1.03 0.34,0.46 0.63,0.86 0.86,1.2 0.91,1.26 1.48,2.4 1.71,3.43 0.23,0.69 0.28,1.43 0.17,2.23 -0.12,0.57 -0.29,1.2 -0.51,1.88 -0.34,0.92 -0.86,1.94 -1.54,3.08 -0.34,0.69 -0.92,1.63 -1.71,2.83 -0.8,1.2 -1.32,2.03 -1.54,2.48 -0.57,0.92 -1.03,1.77 -1.37,2.57 -0.46,0.92 -0.69,1.6 -0.69,2.06 0,0.23 0,0.4 0,0.51 h -0.17 c 0.11,0.12 0.28,0.12 0.51,0 0.69,0 1.54,-0.23 2.57,-0.69 1.37,-0.69 3.08,-1.77 5.14,-3.26 1.6,-1.26 3.2,-2.57 4.8,-3.94 1.48,-1.37 2.97,-2.8 4.46,-4.28 2.97,-3.2 5.6,-6.34 7.88,-9.42 0.37,-0.58 0.54,-0.86 0.54,-0.86 z m -21.25,-4.8 c -0.57,0.92 -0.97,1.71 -1.2,2.4 v 0.17 c 0.69,-0.69 1.31,-1.37 1.88,-2.06 0.8,-0.91 1.43,-1.71 1.88,-2.4 0.23,-0.46 0.46,-0.91 0.69,-1.37 0.23,-0.34 0.46,-0.74 0.69,-1.2 0.34,-0.69 0.57,-1.43 0.69,-2.23 -0.46,0.46 -0.92,1.03 -1.37,1.71 -1.14,1.49 -2.23,3.15 -3.26,4.98 z m 4.8,-9.09 c 0.11,0 0.17,0.06 0.17,0.17 v -0.17 z"
   id="path3834"
   inkscape:connector-curvature="0"
   style="fill:#ffffff" />
	<path
   class="st0"
   d="m 607.48,311.63 c 0.4,0.46 0.37,0.86 -0.09,1.2 h -0.17 c -1.83,1.37 -3.89,2.57 -6.17,3.6 -2.63,1.14 -4.91,1.83 -6.85,2.06 -1.49,0.23 -2.74,0.12 -3.77,-0.34 -0.69,1.14 -1.54,2.17 -2.57,3.08 -0.69,0.69 -1.43,1.26 -2.23,1.71 -0.92,0.57 -1.83,0.92 -2.74,1.03 -0.69,0 -1.31,-0.06 -1.88,-0.17 -0.69,-0.23 -1.31,-0.57 -1.88,-1.03 -0.46,-0.46 -0.8,-1.03 -1.03,-1.71 -0.11,-0.57 -0.17,-1.2 -0.17,-1.88 0,-0.8 0.23,-1.77 0.68,-2.91 0.23,-0.8 0.63,-1.66 1.2,-2.57 0.8,-1.37 1.88,-2.8 3.26,-4.28 0.68,-0.69 1.37,-1.26 2.06,-1.71 0.46,-0.34 0.86,-0.63 1.2,-0.86 0.69,-0.34 1.31,-0.51 1.89,-0.51 0.11,-0.11 0.28,-0.17 0.51,-0.17 0.34,-0.11 0.63,-0.06 0.86,0.17 l 0.34,0.17 0.51,0.34 c 0.23,0.11 0.46,0.23 0.69,0.34 0.57,0.46 0.97,0.92 1.2,1.37 0.69,0.92 0.91,2 0.69,3.26 -0.12,1.26 -0.69,2.97 -1.71,5.14 0.8,0.23 1.71,0.29 2.74,0.17 1.94,-0.23 4.05,-0.91 6.34,-2.06 2.28,-1.03 4.22,-2.23 5.83,-3.6 0.43,-0.35 0.86,-0.3 1.26,0.16 z m -21.17,7.54 c 0.8,-0.69 1.54,-1.43 2.23,-2.23 -0.34,-0.57 -0.63,-1.14 -0.86,-1.71 -0.23,-0.8 -0.34,-2.11 -0.34,-3.94 0,-0.11 0.06,-0.28 0.17,-0.51 v -0.17 h -0.17 c -0.46,0.46 -0.97,0.97 -1.54,1.54 -1.03,1.03 -2,2.17 -2.91,3.43 -0.8,1.49 -1.26,2.74 -1.37,3.77 -0.12,0.46 -0.06,0.8 0.17,1.03 0,0.11 0.06,0.23 0.17,0.34 0.23,0.12 0.46,0.17 0.69,0.17 0.57,0 1.2,-0.17 1.88,-0.51 0.57,-0.35 1.2,-0.75 1.88,-1.21 z m 3.77,-8.91 h -0.17 c -0.23,0.46 -0.4,0.92 -0.51,1.37 -0.23,1.03 -0.23,2.06 0,3.08 0,0.23 0.06,0.4 0.17,0.51 0.69,-1.37 1.03,-2.51 1.03,-3.43 0,-0.67 -0.17,-1.19 -0.52,-1.53 z"
   id="path3836"
   inkscape:connector-curvature="0"
   style="fill:#ffffff" />
	<path
   class="st0"
   d="m 636.18,265.19 c 0,0.12 0,0.29 0,0.51 -0.12,0.23 -0.17,0.51 -0.17,0.86 -0.12,0.46 -0.29,0.92 -0.51,1.37 -0.23,0.8 -0.51,1.66 -0.86,2.57 -1.14,2.51 -2.74,5.54 -4.8,9.08 -1.37,2.51 -3.2,5.43 -5.48,8.74 -2.17,3.43 -4.06,6.28 -5.66,8.57 -2.06,3.08 -4,5.89 -5.83,8.4 -2.29,3.08 -4.4,5.77 -6.34,8.05 -0.12,0.23 -0.23,0.34 -0.34,0.34 -1.26,2.97 -2.17,5.6 -2.74,7.88 -0.46,1.83 -0.74,3.43 -0.86,4.8 -0.11,0.8 -0.17,1.54 -0.17,2.23 0,0.46 0.06,0.8 0.17,1.03 v 0.17 c 0.12,0 0.34,-0.06 0.69,-0.17 0.57,-0.11 1.26,-0.4 2.06,-0.86 1.48,-0.69 2.91,-1.6 4.28,-2.74 2.17,-1.71 4.63,-4 7.37,-6.86 2.28,-2.28 4.51,-4.8 6.68,-7.54 0.34,-0.57 0.74,-0.66 1.2,-0.26 0.46,0.4 0.51,0.83 0.17,1.29 -7.43,8 -12.17,12.97 -14.22,14.91 -0.12,0 -0.4,0.23 -0.86,0.69 -0.46,0.46 -0.8,0.8 -1.03,1.03 -0.8,0.69 -1.49,1.26 -2.06,1.71 -0.92,0.69 -1.71,1.2 -2.4,1.54 -0.69,0.23 -1.26,0.4 -1.71,0.51 -0.34,0 -0.69,-0.06 -1.03,-0.17 -0.46,0 -0.91,-0.17 -1.37,-0.51 -0.57,-0.46 -0.97,-1.08 -1.2,-1.88 -0.11,-0.46 -0.23,-1.03 -0.34,-1.71 0,-0.8 0,-1.71 0,-2.74 0.23,-1.6 0.57,-3.37 1.03,-5.31 0.69,-2.85 1.77,-6.17 3.26,-9.94 1.03,-2.63 2.4,-5.77 4.11,-9.42 1.6,-3.08 3.2,-6.11 4.8,-9.08 1.71,-3.31 3.43,-6.28 5.14,-8.91 0.46,-0.8 0.91,-1.54 1.37,-2.23 l 1.37,-2.06 c 1.03,-1.48 2,-2.91 2.91,-4.28 2.51,-3.54 4.63,-6.28 6.34,-8.23 0.69,-0.8 1.31,-1.48 1.88,-2.06 0.46,-0.34 0.86,-0.69 1.2,-1.03 0.34,-0.23 0.69,-0.4 1.03,-0.51 0.46,-0.11 0.91,-0.11 1.37,0 0.34,0.12 0.63,0.34 0.86,0.69 0.23,0.12 0.4,0.32 0.51,0.6 0.12,0.28 0.18,0.59 0.18,0.93 z m -9.25,12.85 c 1.71,-3.08 3.08,-5.77 4.11,-8.05 -1.37,1.71 -3.08,4 -5.14,6.85 -0.92,1.37 -1.83,2.8 -2.74,4.28 l -1.37,2.06 c -0.46,0.57 -0.92,1.31 -1.37,2.23 -1.6,2.51 -3.26,5.43 -4.97,8.74 -1.71,3.08 -3.26,6.06 -4.63,8.91 -0.57,1.26 -1.2,2.57 -1.88,3.94 1.03,-1.48 1.71,-2.51 2.06,-3.08 1.6,-2.28 3.43,-5.08 5.48,-8.4 1.48,-2.28 3.31,-5.2 5.48,-8.74 2.28,-4 3.94,-6.91 4.97,-8.74 z"
   id="path3838"
   inkscape:connector-curvature="0"
   style="fill:#ffffff" />
	<path
   class="st0"
   d="m 651.77,311.46 c 0.34,0.46 0.34,0.86 0,1.2 -1.83,1.71 -3.66,3.08 -5.48,4.11 -2.4,1.37 -4.57,2.29 -6.51,2.74 -0.8,0.12 -1.49,0.12 -2.06,0 -0.34,0 -0.69,-0.06 -1.03,-0.17 -0.12,0 -0.29,-0.06 -0.51,-0.17 -0.34,-0.11 -0.57,-0.23 -0.69,-0.34 -0.34,-0.11 -0.66,-0.34 -0.94,-0.69 -0.29,-0.34 -0.49,-0.74 -0.6,-1.2 -0.23,-0.57 -0.34,-1.26 -0.34,-2.06 -1.37,1.26 -2.51,2.29 -3.43,3.08 -1.03,0.69 -1.94,1.26 -2.74,1.71 -0.57,0.23 -1.14,0.4 -1.71,0.51 -0.69,0.23 -1.37,0.23 -2.06,0 -0.46,0 -0.86,-0.11 -1.2,-0.34 -0.34,-0.34 -0.63,-0.69 -0.86,-1.03 -0.46,-0.69 -0.69,-1.43 -0.69,-2.23 0,-0.69 0.12,-1.37 0.34,-2.06 0.23,-0.57 0.46,-1.08 0.69,-1.54 0.91,-1.71 2.4,-3.37 4.46,-4.97 1.6,-1.26 3.43,-2.28 5.48,-3.08 2.06,-0.91 4.05,-1.48 6,-1.71 1.37,-0.11 2.51,-0.06 3.43,0.17 0.8,0.23 1.43,0.57 1.88,1.03 0.23,0.34 0.4,0.69 0.51,1.03 0.11,0.34 0.11,0.75 0,1.2 0,0.57 -0.29,0.8 -0.86,0.68 -0.46,0 -0.74,-0.23 -0.86,-0.68 v -0.17 c 0,-0.23 -0.11,-0.4 -0.34,-0.51 -0.23,-0.11 -0.51,-0.17 -0.86,-0.17 -0.69,-0.11 -1.49,-0.06 -2.4,0.17 -0.8,0.12 -1.71,0.4 -2.74,0.86 -0.8,0.23 -1.66,0.57 -2.57,1.03 -1.71,0.8 -3.26,1.77 -4.63,2.91 -1.37,1.14 -2.51,2.46 -3.43,3.94 -0.12,0.34 -0.29,0.69 -0.51,1.03 -0.12,0.23 -0.17,0.4 -0.17,0.51 0,0.12 0,0.23 0,0.34 -0.12,0.23 -0.14,0.43 -0.09,0.6 0.06,0.17 0.14,0.26 0.26,0.26 0.34,0.23 1.03,0.23 2.06,0 0.8,-0.34 1.6,-0.74 2.4,-1.2 1.6,-0.91 3.08,-2.11 4.46,-3.6 0.57,-0.8 1.14,-1.54 1.71,-2.23 0.46,-0.8 0.91,-1.65 1.37,-2.57 l 0.17,-0.17 c 0.91,-0.91 1.77,-0.97 2.57,-0.17 0.8,0.69 0.91,1.49 0.34,2.4 -0.8,1.03 -1.37,1.88 -1.71,2.57 -0.57,1.03 -0.97,1.88 -1.2,2.57 0,0.34 0,0.63 0,0.86 0.11,0.23 0.23,0.4 0.34,0.51 l 0.17,0.17 h 0.17 c 0,0.12 0.06,0.17 0.17,0.17 0.11,0 0.28,0 0.51,0 0.34,0.12 0.8,0.12 1.37,0 1.71,-0.11 3.66,-0.74 5.83,-1.88 1.71,-0.91 3.48,-2.11 5.31,-3.6 0.48,-0.34 0.88,-0.28 1.22,0.18 z"
   id="path3840"
   inkscape:connector-curvature="0"
   style="fill:#ffffff" />
</g>
<g
   id="g3880"
   transform="matrix(0.6978378,0,0,0.6978378,-78.592238,-164.81817)">
	<path
   class="st0"
   d="m 533.93,348.71 c -0.32,0.38 -0.68,0.67 -1.08,0.85 -0.4,0.18 -0.84,0.27 -1.3,0.27 -0.5,0 -0.95,-0.08 -1.37,-0.25 -0.42,-0.17 -0.78,-0.4 -1.08,-0.71 -0.3,-0.3 -0.53,-0.66 -0.7,-1.08 -0.17,-0.42 -0.25,-0.87 -0.25,-1.37 0,-0.49 0.08,-0.95 0.25,-1.37 0.17,-0.42 0.4,-0.77 0.7,-1.08 0.3,-0.3 0.66,-0.54 1.08,-0.71 0.42,-0.17 0.88,-0.25 1.37,-0.25 0.48,0 0.92,0.1 1.32,0.29 0.41,0.2 0.77,0.47 1.08,0.83 l -0.67,0.5 c -0.24,-0.27 -0.51,-0.48 -0.8,-0.64 -0.29,-0.16 -0.6,-0.23 -0.94,-0.23 -0.39,0 -0.75,0.07 -1.06,0.21 -0.32,0.14 -0.59,0.33 -0.81,0.57 -0.22,0.24 -0.39,0.52 -0.51,0.84 -0.12,0.32 -0.17,0.67 -0.17,1.03 0,0.36 0.06,0.71 0.17,1.03 0.12,0.32 0.29,0.6 0.51,0.84 0.22,0.24 0.49,0.43 0.81,0.57 0.32,0.14 0.67,0.21 1.06,0.21 0.35,0 0.68,-0.08 0.97,-0.25 0.29,-0.17 0.55,-0.38 0.76,-0.65 z"
   id="path3844"
   inkscape:connector-curvature="0"
   style="fill:#ffffff" />
	<path
   class="st0"
   d="m 535.25,339.08 h 0.84 v 5.25 h 0.03 c 0.17,-0.35 0.45,-0.66 0.84,-0.92 0.39,-0.26 0.85,-0.39 1.37,-0.39 0.5,0 0.92,0.08 1.23,0.24 0.32,0.16 0.57,0.37 0.75,0.62 0.18,0.26 0.31,0.55 0.38,0.89 0.07,0.34 0.1,0.68 0.1,1.04 v 3.85 h -0.84 v -3.81 c 0,-0.26 -0.02,-0.52 -0.07,-0.76 -0.05,-0.24 -0.13,-0.47 -0.25,-0.67 -0.12,-0.2 -0.28,-0.35 -0.49,-0.47 -0.21,-0.12 -0.48,-0.17 -0.82,-0.17 -0.31,0 -0.6,0.05 -0.88,0.16 -0.28,0.11 -0.51,0.27 -0.71,0.49 -0.2,0.22 -0.36,0.5 -0.48,0.83 -0.12,0.33 -0.17,0.72 -0.17,1.17 v 3.23 h -0.84 v -10.58 z"
   id="path3846"
   inkscape:connector-curvature="0"
   style="fill:#ffffff" />
	<path
   class="st0"
   d="m 542.67,346.43 c 0,-0.49 0.08,-0.95 0.25,-1.37 0.17,-0.42 0.4,-0.77 0.7,-1.08 0.3,-0.3 0.66,-0.54 1.08,-0.71 0.42,-0.17 0.88,-0.25 1.37,-0.25 0.49,0 0.95,0.08 1.37,0.25 0.42,0.17 0.77,0.4 1.08,0.71 0.3,0.3 0.54,0.66 0.71,1.08 0.17,0.42 0.25,0.87 0.25,1.37 0,0.5 -0.08,0.95 -0.25,1.37 -0.17,0.42 -0.4,0.77 -0.71,1.08 -0.3,0.3 -0.66,0.54 -1.08,0.71 -0.42,0.17 -0.87,0.25 -1.37,0.25 -0.5,0 -0.95,-0.08 -1.37,-0.25 -0.42,-0.17 -0.78,-0.4 -1.08,-0.71 -0.3,-0.3 -0.53,-0.66 -0.7,-1.08 -0.17,-0.42 -0.25,-0.87 -0.25,-1.37 z m 0.84,0 c 0,0.36 0.06,0.71 0.17,1.03 0.12,0.32 0.29,0.6 0.51,0.84 0.22,0.24 0.49,0.43 0.81,0.57 0.32,0.14 0.67,0.21 1.06,0.21 0.39,0 0.75,-0.07 1.06,-0.21 0.32,-0.14 0.59,-0.33 0.81,-0.57 0.22,-0.24 0.39,-0.52 0.51,-0.84 0.12,-0.32 0.18,-0.67 0.18,-1.03 0,-0.36 -0.06,-0.71 -0.18,-1.03 -0.12,-0.32 -0.29,-0.6 -0.51,-0.84 -0.22,-0.24 -0.5,-0.43 -0.81,-0.57 -0.32,-0.14 -0.67,-0.21 -1.06,-0.21 -0.39,0 -0.75,0.07 -1.06,0.21 -0.32,0.14 -0.59,0.33 -0.81,0.57 -0.22,0.24 -0.39,0.52 -0.51,0.84 -0.11,0.33 -0.17,0.67 -0.17,1.03 z"
   id="path3848"
   inkscape:connector-curvature="0"
   style="fill:#ffffff" />
	<path
   class="st0"
   d="m 556.77,348.71 c -0.32,0.38 -0.68,0.67 -1.08,0.85 -0.4,0.18 -0.83,0.27 -1.3,0.27 -0.5,0 -0.95,-0.08 -1.37,-0.25 -0.42,-0.17 -0.78,-0.4 -1.08,-0.71 -0.3,-0.3 -0.53,-0.66 -0.7,-1.08 -0.17,-0.42 -0.25,-0.87 -0.25,-1.37 0,-0.49 0.08,-0.95 0.25,-1.37 0.17,-0.42 0.4,-0.77 0.7,-1.08 0.3,-0.3 0.66,-0.54 1.08,-0.71 0.42,-0.17 0.88,-0.25 1.37,-0.25 0.48,0 0.92,0.1 1.32,0.29 0.41,0.2 0.77,0.47 1.08,0.83 l -0.67,0.5 c -0.24,-0.27 -0.51,-0.48 -0.8,-0.64 -0.29,-0.15 -0.6,-0.23 -0.94,-0.23 -0.39,0 -0.75,0.07 -1.06,0.21 -0.32,0.14 -0.59,0.33 -0.81,0.57 -0.22,0.24 -0.39,0.52 -0.51,0.84 -0.12,0.32 -0.17,0.67 -0.17,1.03 0,0.36 0.06,0.71 0.17,1.03 0.12,0.32 0.29,0.6 0.51,0.84 0.22,0.24 0.49,0.43 0.81,0.57 0.32,0.14 0.67,0.21 1.06,0.21 0.35,0 0.68,-0.08 0.97,-0.25 0.29,-0.17 0.55,-0.38 0.76,-0.65 z"
   id="path3850"
   inkscape:connector-curvature="0"
   style="fill:#ffffff" />
	<path
   class="st0"
   d="m 557.72,346.43 c 0,-0.49 0.08,-0.95 0.25,-1.37 0.17,-0.42 0.4,-0.77 0.7,-1.08 0.3,-0.3 0.66,-0.54 1.08,-0.71 0.42,-0.17 0.88,-0.25 1.37,-0.25 0.49,0 0.95,0.08 1.36,0.25 0.41,0.17 0.77,0.4 1.08,0.71 0.3,0.3 0.54,0.66 0.71,1.08 0.17,0.42 0.25,0.87 0.25,1.37 0,0.5 -0.08,0.95 -0.25,1.37 -0.17,0.42 -0.4,0.77 -0.71,1.08 -0.3,0.3 -0.66,0.54 -1.08,0.71 -0.42,0.17 -0.87,0.25 -1.36,0.25 -0.5,0 -0.95,-0.08 -1.37,-0.25 -0.42,-0.17 -0.78,-0.4 -1.08,-0.71 -0.3,-0.3 -0.53,-0.66 -0.7,-1.08 -0.17,-0.42 -0.25,-0.87 -0.25,-1.37 z m 0.84,0 c 0,0.36 0.06,0.71 0.17,1.03 0.12,0.32 0.29,0.6 0.51,0.84 0.22,0.24 0.49,0.43 0.81,0.57 0.32,0.14 0.67,0.21 1.06,0.21 0.39,0 0.75,-0.07 1.06,-0.21 0.32,-0.14 0.59,-0.33 0.81,-0.57 0.22,-0.24 0.39,-0.52 0.51,-0.84 0.12,-0.32 0.17,-0.67 0.17,-1.03 0,-0.36 -0.06,-0.71 -0.17,-1.03 -0.12,-0.32 -0.29,-0.6 -0.51,-0.84 -0.22,-0.24 -0.5,-0.43 -0.81,-0.57 -0.32,-0.14 -0.67,-0.21 -1.06,-0.21 -0.39,0 -0.75,0.07 -1.06,0.21 -0.32,0.14 -0.59,0.33 -0.81,0.57 -0.22,0.24 -0.39,0.52 -0.51,0.84 -0.11,0.33 -0.17,0.67 -0.17,1.03 z"
   id="path3852"
   inkscape:connector-curvature="0"
   style="fill:#ffffff" />
	<path
   class="st0"
   d="m 566.54,339.08 h 0.84 v 10.58 h -0.84 z"
   id="path3854"
   inkscape:connector-curvature="0"
   style="fill:#ffffff" />
	<path
   class="st0"
   d="m 574.78,346.95 c 0,0.32 0,0.6 0.01,0.85 0.01,0.25 0.01,0.49 0.02,0.7 0.01,0.21 0.02,0.42 0.04,0.6 0.01,0.19 0.04,0.37 0.06,0.56 h -0.78 c -0.06,-0.32 -0.08,-0.67 -0.08,-1.05 h -0.03 c -0.24,0.42 -0.54,0.73 -0.9,0.92 -0.36,0.2 -0.81,0.29 -1.37,0.29 -0.28,0 -0.55,-0.04 -0.83,-0.11 -0.27,-0.07 -0.51,-0.18 -0.73,-0.34 -0.21,-0.15 -0.39,-0.35 -0.53,-0.59 -0.13,-0.24 -0.2,-0.54 -0.2,-0.88 0,-0.5 0.13,-0.89 0.38,-1.18 0.25,-0.29 0.56,-0.51 0.93,-0.65 0.37,-0.14 0.76,-0.24 1.18,-0.28 0.42,-0.04 0.78,-0.06 1.1,-0.06 h 0.98 v -0.39 c 0,-0.56 -0.17,-0.96 -0.52,-1.2 -0.35,-0.24 -0.78,-0.36 -1.3,-0.36 -0.75,0 -1.4,0.24 -1.97,0.73 l -0.49,-0.57 c 0.31,-0.3 0.69,-0.52 1.15,-0.68 0.46,-0.15 0.9,-0.23 1.32,-0.23 0.78,0 1.41,0.18 1.88,0.55 0.47,0.37 0.7,0.96 0.7,1.79 v 1.58 z m -1.68,-0.53 c -0.35,0 -0.7,0.02 -1.03,0.07 -0.33,0.05 -0.63,0.13 -0.9,0.24 -0.27,0.11 -0.48,0.26 -0.64,0.45 -0.16,0.19 -0.24,0.42 -0.24,0.7 0,0.2 0.04,0.37 0.13,0.52 0.09,0.15 0.2,0.28 0.34,0.38 0.14,0.1 0.3,0.17 0.47,0.22 0.17,0.05 0.35,0.08 0.53,0.08 0.45,0 0.82,-0.07 1.11,-0.2 0.29,-0.13 0.52,-0.3 0.69,-0.51 0.17,-0.21 0.29,-0.45 0.36,-0.71 0.07,-0.27 0.1,-0.53 0.1,-0.81 v -0.43 z"
   id="path3856"
   inkscape:connector-curvature="0"
   style="fill:#ffffff" />
	<path
   class="st0"
   d="m 580.19,343.96 h -1.85 v 4.21 c 0,0.29 0.08,0.51 0.24,0.67 0.16,0.16 0.38,0.24 0.66,0.24 0.16,0 0.32,-0.02 0.48,-0.06 0.16,-0.04 0.32,-0.1 0.47,-0.16 l 0.07,0.76 c -0.16,0.06 -0.34,0.11 -0.55,0.15 -0.21,0.05 -0.39,0.07 -0.55,0.07 -0.3,0 -0.56,-0.04 -0.77,-0.13 -0.21,-0.09 -0.39,-0.21 -0.52,-0.36 -0.13,-0.15 -0.23,-0.32 -0.29,-0.53 -0.06,-0.2 -0.09,-0.42 -0.09,-0.65 v -4.21 h -1.4 v -0.76 h 1.4 v -1.86 h 0.84 v 1.86 h 1.85 v 0.76 z"
   id="path3858"
   inkscape:connector-curvature="0"
   style="fill:#ffffff" />
	<path
   class="st0"
   d="m 587.4,348.45 c -0.33,0.49 -0.73,0.85 -1.21,1.06 -0.48,0.21 -1.01,0.32 -1.59,0.32 -0.5,0 -0.94,-0.08 -1.34,-0.25 -0.4,-0.17 -0.75,-0.4 -1.04,-0.71 -0.29,-0.3 -0.51,-0.66 -0.67,-1.08 -0.16,-0.42 -0.23,-0.88 -0.23,-1.38 0,-0.49 0.08,-0.93 0.24,-1.34 0.16,-0.41 0.38,-0.77 0.67,-1.07 0.29,-0.3 0.63,-0.54 1.02,-0.71 0.39,-0.17 0.83,-0.26 1.3,-0.26 0.49,0 0.93,0.09 1.31,0.26 0.38,0.17 0.7,0.4 0.95,0.69 0.26,0.29 0.45,0.61 0.58,0.97 0.13,0.36 0.2,0.73 0.2,1.11 v 0.59 h -5.43 c 0,0.18 0.03,0.4 0.1,0.68 0.07,0.28 0.2,0.54 0.38,0.81 0.19,0.26 0.44,0.49 0.75,0.67 0.31,0.18 0.72,0.28 1.21,0.28 0.43,0 0.84,-0.1 1.25,-0.31 0.4,-0.21 0.71,-0.49 0.92,-0.84 z m -0.65,-2.56 c 0,-0.29 -0.06,-0.56 -0.17,-0.81 -0.12,-0.25 -0.28,-0.47 -0.48,-0.67 -0.2,-0.19 -0.44,-0.34 -0.71,-0.46 -0.28,-0.11 -0.57,-0.17 -0.88,-0.17 -0.46,0 -0.84,0.09 -1.14,0.28 -0.3,0.19 -0.54,0.4 -0.72,0.64 -0.18,0.24 -0.3,0.48 -0.38,0.71 -0.07,0.23 -0.11,0.38 -0.11,0.47 h 4.59 z"
   id="path3860"
   inkscape:connector-curvature="0"
   style="fill:#ffffff" />
	<path
   class="st0"
   d="m 598.14,346.95 c 0,0.32 0,0.6 0.01,0.85 0.01,0.25 0.01,0.49 0.02,0.7 0.01,0.21 0.02,0.42 0.04,0.6 0.01,0.19 0.04,0.37 0.06,0.56 h -0.78 c -0.06,-0.32 -0.08,-0.67 -0.08,-1.05 h -0.03 c -0.24,0.42 -0.54,0.73 -0.9,0.92 -0.36,0.2 -0.81,0.29 -1.37,0.29 -0.28,0 -0.56,-0.04 -0.83,-0.11 -0.27,-0.07 -0.51,-0.18 -0.73,-0.34 -0.21,-0.15 -0.39,-0.35 -0.53,-0.59 -0.14,-0.24 -0.2,-0.54 -0.2,-0.88 0,-0.5 0.13,-0.89 0.38,-1.18 0.25,-0.29 0.56,-0.51 0.93,-0.65 0.37,-0.14 0.76,-0.24 1.18,-0.28 0.42,-0.04 0.78,-0.06 1.1,-0.06 h 0.98 v -0.39 c 0,-0.56 -0.17,-0.96 -0.52,-1.2 -0.35,-0.24 -0.78,-0.36 -1.3,-0.36 -0.75,0 -1.41,0.24 -1.97,0.73 l -0.49,-0.57 c 0.31,-0.3 0.69,-0.52 1.15,-0.68 0.46,-0.15 0.9,-0.23 1.32,-0.23 0.78,0 1.41,0.18 1.88,0.55 0.47,0.37 0.7,0.96 0.7,1.79 v 1.58 z m -1.68,-0.53 c -0.35,0 -0.7,0.02 -1.03,0.07 -0.33,0.05 -0.63,0.13 -0.9,0.24 -0.27,0.11 -0.48,0.26 -0.64,0.45 -0.16,0.19 -0.24,0.42 -0.24,0.7 0,0.2 0.04,0.37 0.13,0.52 0.09,0.15 0.2,0.28 0.34,0.38 0.14,0.1 0.3,0.17 0.47,0.22 0.17,0.05 0.35,0.08 0.53,0.08 0.45,0 0.82,-0.07 1.11,-0.2 0.29,-0.13 0.52,-0.3 0.69,-0.51 0.17,-0.21 0.29,-0.45 0.36,-0.71 0.07,-0.27 0.1,-0.53 0.1,-0.81 v -0.43 z"
   id="path3862"
   inkscape:connector-curvature="0"
   style="fill:#ffffff" />
	<path
   class="st0"
   d="m 600.38,345.02 c 0,-0.12 0,-0.27 -0.01,-0.44 -0.01,-0.17 -0.02,-0.35 -0.02,-0.53 0,-0.18 -0.01,-0.34 -0.02,-0.5 -0.01,-0.15 -0.01,-0.27 -0.01,-0.36 h 0.84 c 0.01,0.24 0.02,0.48 0.02,0.7 0,0.22 0.02,0.37 0.04,0.43 0.21,-0.38 0.49,-0.7 0.83,-0.94 0.34,-0.24 0.75,-0.36 1.23,-0.36 0.08,0 0.17,0.01 0.25,0.02 0.08,0.01 0.16,0.03 0.25,0.05 l -0.1,0.83 c -0.11,-0.04 -0.22,-0.06 -0.32,-0.06 -0.36,0 -0.68,0.06 -0.95,0.17 -0.27,0.12 -0.49,0.28 -0.66,0.48 -0.17,0.21 -0.3,0.45 -0.39,0.72 -0.09,0.27 -0.13,0.57 -0.13,0.89 v 3.53 h -0.84 v -4.63 z"
   id="path3864"
   inkscape:connector-curvature="0"
   style="fill:#ffffff" />
	<path
   class="st0"
   d="m 608.2,343.96 h -1.85 v 4.21 c 0,0.29 0.08,0.51 0.24,0.67 0.16,0.16 0.38,0.24 0.66,0.24 0.16,0 0.32,-0.02 0.48,-0.06 0.16,-0.04 0.32,-0.1 0.47,-0.16 l 0.07,0.76 c -0.16,0.06 -0.34,0.11 -0.55,0.15 -0.21,0.05 -0.39,0.07 -0.55,0.07 -0.3,0 -0.56,-0.04 -0.77,-0.13 -0.21,-0.09 -0.39,-0.21 -0.52,-0.36 -0.13,-0.15 -0.23,-0.32 -0.29,-0.53 -0.06,-0.2 -0.09,-0.42 -0.09,-0.65 v -4.21 h -1.4 v -0.76 h 1.4 v -1.86 h 0.84 v 1.86 h 1.85 v 0.76 z"
   id="path3866"
   inkscape:connector-curvature="0"
   style="fill:#ffffff" />
	<path
   class="st0"
   d="m 615.41,348.45 c -0.33,0.49 -0.73,0.85 -1.21,1.06 -0.48,0.21 -1.01,0.32 -1.59,0.32 -0.5,0 -0.94,-0.08 -1.34,-0.25 -0.4,-0.17 -0.75,-0.4 -1.04,-0.71 -0.29,-0.3 -0.51,-0.66 -0.67,-1.08 -0.16,-0.42 -0.23,-0.88 -0.23,-1.38 0,-0.49 0.08,-0.93 0.24,-1.34 0.16,-0.41 0.38,-0.77 0.67,-1.07 0.29,-0.3 0.63,-0.54 1.02,-0.71 0.39,-0.17 0.83,-0.26 1.3,-0.26 0.49,0 0.93,0.09 1.31,0.26 0.38,0.17 0.7,0.4 0.95,0.69 0.26,0.29 0.45,0.61 0.58,0.97 0.13,0.36 0.2,0.73 0.2,1.11 v 0.59 h -5.43 c 0,0.18 0.03,0.4 0.1,0.68 0.07,0.28 0.2,0.54 0.38,0.81 0.19,0.26 0.44,0.49 0.75,0.67 0.31,0.18 0.72,0.28 1.21,0.28 0.43,0 0.84,-0.1 1.25,-0.31 0.4,-0.21 0.71,-0.49 0.92,-0.84 z m -0.64,-2.56 c 0,-0.29 -0.06,-0.56 -0.17,-0.81 -0.12,-0.25 -0.28,-0.47 -0.48,-0.67 -0.2,-0.19 -0.44,-0.34 -0.71,-0.46 -0.28,-0.11 -0.57,-0.17 -0.88,-0.17 -0.46,0 -0.84,0.09 -1.14,0.28 -0.3,0.19 -0.54,0.4 -0.72,0.64 -0.18,0.24 -0.3,0.48 -0.38,0.71 -0.07,0.23 -0.11,0.38 -0.11,0.47 h 4.59 z"
   id="path3868"
   inkscape:connector-curvature="0"
   style="fill:#ffffff" />
	<path
   class="st0"
   d="m 617.5,348.01 c 0.18,0.35 0.44,0.61 0.78,0.79 0.34,0.18 0.71,0.27 1.09,0.27 0.18,0 0.35,-0.03 0.53,-0.08 0.18,-0.06 0.34,-0.14 0.48,-0.24 0.14,-0.1 0.25,-0.23 0.34,-0.37 0.09,-0.14 0.13,-0.31 0.13,-0.5 0,-0.3 -0.1,-0.52 -0.29,-0.67 -0.19,-0.15 -0.43,-0.27 -0.71,-0.35 -0.28,-0.08 -0.59,-0.16 -0.92,-0.22 -0.34,-0.06 -0.64,-0.15 -0.92,-0.28 -0.28,-0.13 -0.52,-0.3 -0.71,-0.53 -0.19,-0.23 -0.29,-0.54 -0.29,-0.95 0,-0.32 0.06,-0.59 0.2,-0.83 0.13,-0.23 0.3,-0.43 0.51,-0.58 0.21,-0.15 0.45,-0.27 0.71,-0.34 0.26,-0.07 0.53,-0.11 0.8,-0.11 0.53,0 0.99,0.1 1.38,0.29 0.39,0.2 0.69,0.5 0.9,0.92 l -0.76,0.45 c -0.16,-0.3 -0.36,-0.52 -0.59,-0.68 -0.23,-0.16 -0.55,-0.23 -0.93,-0.23 -0.15,0 -0.31,0.02 -0.47,0.07 -0.16,0.05 -0.31,0.11 -0.44,0.2 -0.13,0.09 -0.24,0.19 -0.33,0.32 -0.09,0.13 -0.13,0.28 -0.13,0.45 0,0.29 0.1,0.5 0.29,0.64 0.19,0.14 0.43,0.25 0.71,0.33 0.28,0.08 0.59,0.15 0.92,0.2 0.34,0.06 0.64,0.15 0.92,0.27 0.28,0.12 0.52,0.31 0.71,0.55 0.19,0.24 0.29,0.58 0.29,1.02 0,0.34 -0.06,0.63 -0.19,0.88 -0.13,0.25 -0.3,0.46 -0.52,0.62 -0.22,0.17 -0.47,0.29 -0.75,0.38 -0.28,0.09 -0.57,0.13 -0.88,0.13 -0.56,0 -1.07,-0.11 -1.53,-0.32 -0.46,-0.21 -0.82,-0.55 -1.07,-0.99 z"
   id="path3870"
   inkscape:connector-curvature="0"
   style="fill:#ffffff" />
	<path
   class="st0"
   d="m 628.47,346.95 c 0,0.32 0,0.6 0.01,0.85 0.01,0.25 0.01,0.49 0.02,0.7 0.01,0.21 0.02,0.42 0.04,0.6 0.01,0.19 0.04,0.37 0.06,0.56 h -0.78 c -0.06,-0.32 -0.08,-0.67 -0.08,-1.05 h -0.03 c -0.24,0.42 -0.54,0.73 -0.9,0.92 -0.36,0.2 -0.81,0.29 -1.37,0.29 -0.28,0 -0.55,-0.04 -0.83,-0.11 -0.27,-0.07 -0.51,-0.18 -0.73,-0.34 -0.21,-0.15 -0.39,-0.35 -0.53,-0.59 -0.13,-0.24 -0.2,-0.54 -0.2,-0.88 0,-0.5 0.13,-0.89 0.38,-1.18 0.25,-0.29 0.56,-0.51 0.93,-0.65 0.37,-0.14 0.76,-0.24 1.18,-0.28 0.42,-0.04 0.78,-0.06 1.1,-0.06 h 0.98 v -0.39 c 0,-0.56 -0.17,-0.96 -0.52,-1.2 -0.35,-0.24 -0.78,-0.36 -1.3,-0.36 -0.75,0 -1.4,0.24 -1.97,0.73 l -0.49,-0.57 c 0.31,-0.3 0.69,-0.52 1.15,-0.68 0.46,-0.15 0.9,-0.23 1.32,-0.23 0.78,0 1.41,0.18 1.88,0.55 0.47,0.37 0.7,0.96 0.7,1.79 v 1.58 z m -1.68,-0.53 c -0.35,0 -0.7,0.02 -1.03,0.07 -0.33,0.05 -0.63,0.13 -0.9,0.24 -0.27,0.11 -0.48,0.26 -0.64,0.45 -0.16,0.19 -0.24,0.42 -0.24,0.7 0,0.2 0.04,0.37 0.13,0.52 0.09,0.15 0.2,0.28 0.34,0.38 0.14,0.1 0.3,0.17 0.47,0.22 0.17,0.05 0.35,0.08 0.53,0.08 0.45,0 0.82,-0.07 1.11,-0.2 0.29,-0.13 0.52,-0.3 0.69,-0.51 0.17,-0.21 0.29,-0.45 0.36,-0.71 0.07,-0.27 0.1,-0.53 0.1,-0.81 v -0.43 z"
   id="path3872"
   inkscape:connector-curvature="0"
   style="fill:#ffffff" />
	<path
   class="st0"
   d="m 630.71,345.02 c 0,-0.12 0,-0.27 -0.01,-0.44 -0.01,-0.17 -0.02,-0.35 -0.02,-0.53 0,-0.18 -0.01,-0.34 -0.02,-0.5 -0.01,-0.15 -0.01,-0.27 -0.01,-0.36 h 0.84 c 0.01,0.24 0.02,0.48 0.02,0.7 0,0.22 0.02,0.37 0.04,0.43 h 0.04 c 0.17,-0.35 0.45,-0.66 0.84,-0.92 0.39,-0.26 0.85,-0.39 1.37,-0.39 0.5,0 0.92,0.08 1.23,0.24 0.32,0.16 0.57,0.37 0.75,0.62 0.18,0.26 0.31,0.55 0.38,0.89 0.07,0.34 0.1,0.68 0.1,1.04 v 3.85 h -0.84 v -3.81 c 0,-0.26 -0.02,-0.52 -0.07,-0.76 -0.05,-0.24 -0.13,-0.47 -0.25,-0.67 -0.12,-0.2 -0.28,-0.35 -0.49,-0.47 -0.21,-0.12 -0.48,-0.17 -0.82,-0.17 -0.31,0 -0.6,0.05 -0.88,0.16 -0.28,0.11 -0.51,0.27 -0.71,0.49 -0.2,0.22 -0.36,0.5 -0.48,0.83 -0.12,0.33 -0.17,0.72 -0.17,1.17 v 3.23 h -0.84 z"
   id="path3874"
   inkscape:connector-curvature="0"
   style="fill:#ffffff" />
	<path
   class="st0"
   d="m 643.52,346.95 c 0,0.32 0,0.6 0.01,0.85 0.01,0.25 0.01,0.49 0.02,0.7 0.01,0.21 0.02,0.42 0.04,0.6 0.01,0.19 0.04,0.37 0.06,0.56 h -0.78 c -0.06,-0.32 -0.08,-0.67 -0.08,-1.05 h -0.03 c -0.24,0.42 -0.54,0.73 -0.9,0.92 -0.36,0.2 -0.81,0.29 -1.37,0.29 -0.28,0 -0.56,-0.04 -0.83,-0.11 -0.27,-0.07 -0.51,-0.18 -0.73,-0.34 -0.21,-0.15 -0.39,-0.35 -0.53,-0.59 -0.14,-0.24 -0.2,-0.54 -0.2,-0.88 0,-0.5 0.13,-0.89 0.38,-1.18 0.25,-0.29 0.56,-0.51 0.93,-0.65 0.37,-0.14 0.76,-0.24 1.18,-0.28 0.42,-0.04 0.78,-0.06 1.1,-0.06 h 0.98 v -0.39 c 0,-0.56 -0.17,-0.96 -0.52,-1.2 -0.35,-0.24 -0.78,-0.36 -1.3,-0.36 -0.75,0 -1.41,0.24 -1.97,0.73 l -0.49,-0.57 c 0.31,-0.3 0.69,-0.52 1.15,-0.68 0.46,-0.15 0.9,-0.23 1.32,-0.23 0.78,0 1.41,0.18 1.88,0.55 0.47,0.37 0.7,0.96 0.7,1.79 v 1.58 z m -1.68,-0.53 c -0.35,0 -0.7,0.02 -1.03,0.07 -0.33,0.05 -0.63,0.13 -0.9,0.24 -0.27,0.11 -0.48,0.26 -0.64,0.45 -0.16,0.19 -0.24,0.42 -0.24,0.7 0,0.2 0.04,0.37 0.13,0.52 0.09,0.15 0.2,0.28 0.34,0.38 0.14,0.1 0.3,0.17 0.47,0.22 0.17,0.05 0.35,0.08 0.53,0.08 0.45,0 0.82,-0.07 1.11,-0.2 0.29,-0.13 0.52,-0.3 0.69,-0.51 0.17,-0.21 0.29,-0.45 0.36,-0.71 0.07,-0.27 0.1,-0.53 0.1,-0.81 v -0.43 z"
   id="path3876"
   inkscape:connector-curvature="0"
   style="fill:#ffffff" />
	<path
   class="st0"
   d="m 645.9,339.08 h 0.84 v 10.58 h -0.84 z"
   id="path3878"
   inkscape:connector-curvature="0"
   style="fill:#ffffff" />
</g>
</svg>